<?xml version="1.0" standalone="no"?>
<!DOCTYPE svg PUBLIC "-//W3C//DTD SVG 20010904//EN"
 "http://www.w3.org/TR/2001/REC-SVG-20010904/DTD/svg10.dtd">
<svg version="1.0" xmlns="http://www.w3.org/2000/svg"
 width="1536.000000pt" height="1536.000000pt" viewBox="0 0 1536.000000 1536.000000"
 preserveAspectRatio="xMidYMid meet">

<g transform="translate(0.000000,1536.000000) scale(0.100000,-0.100000)"
fill="#000000" stroke="none">
<path d="M7505 14034 c-16 -3 -100 -13 -185 -24 -85 -11 -184 -27 -220 -36
-36 -8 -92 -17 -125 -20 -115 -10 -446 -70 -555 -101 -102 -29 -245 -75 -275
-88 -16 -8 -57 -25 -90 -39 -330 -136 -756 -394 -1035 -625 -313 -261 -534
-502 -734 -801 -239 -357 -399 -677 -521 -1045 -96 -288 -145 -507 -190 -850
-24 -178 -27 -234 -28 -520 -1 -246 3 -357 16 -480 32 -292 96 -612 157 -790
15 -44 44 -132 65 -195 147 -448 438 -966 793 -1414 80 -100 120 -148 257
-311 80 -94 109 -135 149 -205 53 -95 226 -359 314 -480 42 -58 103 -143 136
-190 33 -47 102 -146 155 -220 173 -246 277 -403 381 -580 57 -96 161 -269
231 -385 69 -115 153 -257 186 -315 33 -58 84 -145 113 -195 29 -49 79 -136
111 -192 69 -122 299 -585 299 -602 0 -6 -10 -11 -22 -11 -13 0 -90 -3 -173
-6 l-150 -6 -32 -36 c-55 -59 -37 -137 50 -221 43 -41 46 -48 52 -110 4 -36 8
-77 10 -91 7 -50 16 -180 30 -435 17 -312 25 -406 35 -400 4 3 10 -14 13 -36
3 -23 14 -49 24 -58 10 -10 31 -45 47 -79 16 -34 37 -64 47 -67 10 -3 51 -27
91 -54 61 -40 86 -50 148 -59 47 -7 283 -13 635 -15 l560 -4 68 28 c224 91
327 252 367 574 16 130 48 686 43 740 -6 58 3 70 71 95 26 10 46 26 54 43 12
25 11 33 -20 89 -54 98 -60 100 -266 114 -97 6 -178 12 -179 13 -1 0 10 22 26
48 15 27 50 91 77 143 50 98 159 285 331 570 93 154 333 521 485 740 36 52 99
145 141 205 111 161 577 862 682 1024 133 207 231 358 338 523 53 81 103 160
111 176 8 16 52 72 97 123 150 173 263 336 488 701 110 178 240 435 338 668
97 230 127 321 207 620 74 279 126 727 126 1087 0 200 -40 563 -85 763 -8 36
-26 119 -41 185 -15 66 -49 188 -77 270 -45 135 -63 185 -128 348 -34 85 -163
349 -223 457 -84 150 -127 218 -229 360 -309 430 -594 706 -1031 1000 -137 92
-164 107 -391 215 -77 36 -153 73 -170 82 -71 37 -418 154 -645 217 -185 52
-445 110 -462 103 -8 -3 -6 -6 4 -6 15 -1 197 -48 333 -86 295 -83 681 -217
833 -291 53 -25 102 -47 109 -47 7 0 15 -7 18 -15 3 -8 12 -11 20 -8 8 3 22 3
31 -1 13 -5 13 -8 2 -15 -9 -7 -6 -8 10 -5 28 7 54 -1 46 -14 -3 -5 1 -6 9 -3
17 6 107 -42 192 -103 212 -153 279 -203 350 -262 313 -257 512 -490 809 -946
159 -244 306 -543 418 -850 44 -118 124 -382 137 -450 7 -33 16 -73 22 -90 15
-49 66 -380 80 -515 24 -238 13 -636 -27 -938 -48 -369 -192 -865 -333 -1149
-12 -23 -21 -47 -21 -53 0 -22 -47 -7 -188 64 -164 82 -331 150 -407 166 -115
24 -271 64 -278 70 -5 4 10 75 33 156 46 163 105 400 119 479 5 28 19 100 31
160 92 472 125 1065 81 1487 -28 261 -87 558 -171 858 -135 482 -381 1012
-609 1315 -150 199 -225 280 -424 455 -139 122 -335 254 -504 338 -311 156
-665 275 -901 302 -167 19 -169 9 -2 -15 211 -31 469 -109 702 -214 24 -10 68
-30 98 -44 31 -13 100 -49 154 -81 54 -31 100 -56 102 -56 6 0 159 -105 209
-144 67 -51 248 -213 280 -249 17 -20 62 -71 102 -114 65 -71 133 -155 158
-195 6 -9 42 -63 81 -120 102 -149 286 -501 319 -608 4 -14 13 -38 20 -55 59
-132 92 -233 168 -515 134 -494 179 -774 193 -1205 16 -519 -82 -1211 -257
-1810 -55 -190 -83 -276 -110 -344 -16 -40 -29 -77 -29 -82 0 -10 -122 -326
-145 -376 -8 -17 -15 -34 -15 -38 0 -4 -15 -42 -34 -84 -18 -42 -52 -121 -76
-176 -65 -153 -308 -635 -435 -861 -66 -119 -235 -402 -325 -544 -40 -63 -97
-158 -127 -210 -30 -52 -64 -104 -74 -116 -26 -27 -144 -48 -418 -74 -105 -9
-418 -16 -426 -9 -4 5 13 73 90 349 79 286 163 614 180 700 7 41 28 136 45
210 17 74 44 196 60 270 15 74 42 196 59 270 16 74 33 156 36 182 4 26 11 45
16 43 4 -3 6 12 4 32 -4 31 -3 34 4 13 l9 -25 2 25 c1 14 2 29 1 34 -1 5 31 6
76 1 248 -24 349 -24 339 1 -4 11 5 14 46 14 31 0 87 12 142 31 98 34 116 44
116 66 0 11 -4 11 -21 3 -11 -7 -72 -23 -135 -36 -163 -34 -323 -34 -454 2
-137 38 -128 33 -107 49 28 20 136 634 172 975 8 80 22 208 30 285 8 77 19
286 25 465 5 179 12 381 14 450 4 126 -9 754 -18 930 -3 52 -8 145 -11 205
-26 497 -143 1195 -264 1570 -39 120 -177 453 -211 510 -10 17 -35 64 -56 105
-84 166 -244 379 -404 539 -86 86 -221 128 -428 135 -76 2 -150 2 -167 0z m70
-22 c-71 -18 -59 -27 17 -14 67 12 275 -1 343 -22 71 -22 139 -79 255 -216
206 -243 406 -635 531 -1040 102 -332 164 -620 199 -935 6 -55 16 -127 22
-160 29 -172 40 -280 48 -480 29 -703 32 -823 26 -1110 -12 -617 -27 -859 -71
-1200 -8 -60 -19 -150 -25 -200 -12 -95 -53 -346 -96 -580 -35 -191 -33 -187
-45 -179 -6 3 -8 12 -5 20 3 8 1 14 -5 14 -6 0 -8 4 -5 8 2 4 1 14 -3 21 -7
10 -12 10 -28 1 -18 -12 -17 -15 25 -59 24 -25 56 -52 71 -59 l26 -12 -29 5
c-15 3 -35 13 -44 21 -8 9 -38 26 -66 39 -28 13 -62 35 -75 49 -15 16 -31 24
-42 21 -21 -7 -75 43 -70 64 2 12 0 13 -12 2 -13 -10 -16 -9 -22 8 -13 41 -13
61 -2 61 7 0 7 4 -3 9 -8 6 -18 7 -24 4 -5 -4 -7 1 -3 11 4 10 7 24 7 32 0 8
5 13 12 11 6 -1 13 7 15 18 3 16 2 17 -6 6 -7 -11 -13 -12 -23 -3 -11 9 -19 8
-36 -4 -20 -13 -21 -13 -16 1 3 8 11 15 16 15 6 0 5 6 -2 15 -7 8 -9 15 -5 15
4 0 2 7 -5 15 -18 22 -38 18 -43 -7 -4 -21 -4 -21 -6 -2 0 11 11 31 25 45 23
21 25 22 22 5 -1 -10 2 -21 8 -23 7 -2 11 6 10 22 0 14 -4 26 -8 26 -5 1 -13
2 -20 3 -15 1 -20 18 -9 35 11 16 34 5 25 -12 -4 -7 -3 -9 1 -4 11 9 35 -47
35 -82 0 -18 3 -22 9 -12 11 17 -5 91 -25 112 -8 9 -12 22 -10 30 2 8 7 39 10
69 4 46 3 50 -5 23 -5 -18 -14 -33 -21 -33 -7 0 -7 4 1 14 6 7 9 30 6 51 -4
35 -3 36 13 22 11 -10 24 -12 37 -7 20 9 20 9 0 9 -11 1 -26 10 -33 21 -11 18
-10 20 9 20 11 0 18 -4 15 -9 -12 -18 42 -18 55 1 21 29 32 21 25 -19 -25
-140 -26 -157 -16 -234 13 -104 60 -214 122 -282 27 -29 48 -47 48 -41 0 6 -7
17 -15 24 -8 7 -15 19 -15 26 0 8 -6 13 -12 11 -15 -2 -60 85 -84 163 -24 76
-24 207 0 295 14 54 26 77 54 103 19 17 43 32 52 32 16 0 37 25 100 120 14 21
42 62 62 92 54 78 59 99 65 263 8 218 -13 359 -73 480 -24 50 -60 108 -80 130
-35 38 -35 39 -11 4 45 -64 97 -175 118 -255 31 -117 39 -389 13 -490 -10 -41
-22 -74 -26 -74 -4 0 -8 -6 -8 -13 0 -19 -85 -158 -122 -198 -40 -43 -104 -86
-138 -93 -14 -3 -39 -9 -56 -14 -34 -11 -84 -5 -84 9 0 5 6 9 13 9 6 0 46 18
88 40 68 35 111 72 170 147 34 43 87 150 100 203 18 74 15 293 -6 395 -45 222
-206 418 -428 520 -125 57 -148 59 -534 60 -194 0 -353 -3 -353 -7 0 -5 64 -8
143 -8 277 0 407 -5 407 -15 0 -5 5 -4 12 3 14 14 114 16 123 2 3 -5 13 -6 21
-3 14 5 15 3 4 -17 -9 -16 -9 -25 -1 -33 8 -8 11 -8 11 0 0 6 15 11 34 11 19
0 39 3 44 6 6 4 8 -6 6 -24 -3 -17 -1 -30 5 -30 6 0 10 3 8 8 -1 4 3 8 8 9 6
1 9 -6 8 -15 -2 -20 39 -42 58 -32 35 19 59 21 59 6 0 -8 -7 -19 -17 -24 -14
-9 -14 -10 6 -17 37 -12 12 -26 -35 -19 l-44 6 0 -41 c0 -30 -4 -41 -15 -41
-25 0 -19 68 8 90 l22 19 -27 -3 c-18 -2 -28 2 -28 10 0 8 -24 15 -75 19 -70
7 -93 17 -62 28 7 2 8 8 3 13 -5 5 -11 4 -13 -3 -3 -9 -30 -13 -84 -13 -72 0
-79 -2 -79 -20 0 -24 11 -25 50 -5 l30 16 0 -36 c0 -24 5 -35 15 -35 11 0 15
-11 15 -40 l0 -40 65 0 c36 0 65 -4 65 -8 0 -4 -21 -18 -47 -31 l-47 -23 -28
31 c-15 17 -34 31 -41 31 -8 0 -22 18 -32 40 -10 22 -22 40 -27 40 -5 0 -26
18 -47 40 -20 22 -40 40 -44 40 -4 0 -7 -18 -7 -40 0 -29 -4 -40 -15 -40 -11
0 -15 11 -15 40 l0 40 -105 0 c-87 0 -105 -3 -105 -15 0 -19 -11 -19 -35 -1
-19 14 -19 15 -2 52 13 26 15 39 7 44 -16 10 -140 11 -140 1 0 -5 11 -6 25 -3
20 3 25 0 25 -16 0 -11 -8 -22 -20 -25 -11 -3 -20 -12 -20 -21 0 -9 -7 -16
-15 -16 -8 0 -15 7 -15 15 0 16 -3 17 -95 20 -149 6 -152 6 -125 15 14 4 44
13 68 19 23 7 40 16 37 21 -4 6 17 10 49 10 35 0 56 4 56 11 0 8 -18 10 -61 5
-34 -3 -130 -6 -213 -7 -83 0 -145 -3 -138 -6 22 -9 13 -19 -17 -18 -16 0 -27
3 -24 7 2 5 -12 8 -31 8 -19 0 -38 -5 -41 -10 -4 -6 -12 -10 -18 -8 -29 5 -86
-18 -134 -55 -65 -49 -79 -45 -19 6 61 51 131 89 201 111 33 10 70 22 82 27
12 4 63 11 113 15 94 7 111 15 38 19 -24 1 -56 4 -73 7 -16 3 -22 3 -12 1 9
-2 15 -9 12 -14 -8 -12 -52 -12 -60 1 -3 6 -11 10 -16 10 -6 0 -7 -5 -3 -12 5
-8 2 -9 -10 -5 -10 4 -15 3 -11 -3 8 -13 -11 -13 -53 -1 -25 8 -32 7 -32 -4 0
-9 6 -12 15 -9 8 4 15 1 15 -4 0 -19 -54 -18 -72 1 -10 9 -18 22 -18 27 0 14
-17 12 -24 -2 -3 -7 -3 -3 0 10 6 24 -5 29 -23 11 -8 -8 -17 -7 -35 6 l-23 17
28 -6 c25 -6 40 8 17 16 -6 2 10 14 35 27 25 13 49 21 52 17 4 -4 1 -11 -6
-15 -8 -5 -9 -11 -3 -15 12 -7 23 19 16 38 -4 11 5 17 30 21 20 4 33 11 30 16
-3 5 3 6 12 2 12 -4 15 -3 10 5 -4 7 -1 12 8 12 8 0 37 14 63 30 26 17 53 28
60 26 6 -3 14 0 16 7 3 8 10 5 21 -8 l16 -20 -7 20 c-6 20 -6 20 15 1 19 -17
22 -17 22 -3 0 10 -6 16 -12 14 -7 -1 -12 4 -10 11 1 9 -6 11 -25 7 -28 -6
-28 -6 2 8 18 8 32 10 34 4 10 -27 43 -47 66 -41 14 3 28 10 31 15 3 5 14 9
25 9 10 0 19 5 19 10 0 13 37 13 45 0 4 -6 12 -7 18 -3 15 9 49 9 65 -1 8 -5
10 -2 5 10 -5 13 -3 16 10 11 8 -3 17 -2 19 3 3 8 77 12 168 9 14 0 64 3 112
7 47 4 95 3 105 -1 10 -4 32 -9 48 -10 73 -7 125 -18 125 -27 0 -5 5 -6 10 -3
13 8 42 -14 35 -26 -3 -4 5 -6 17 -4 15 3 29 -3 43 -19 11 -12 51 -35 88 -51
63 -25 75 -27 164 -22 54 3 99 10 103 16 4 8 18 7 46 -6 37 -16 97 -19 244
-12 19 1 58 -1 85 -4 46 -6 48 -6 15 4 -131 41 -228 94 -286 156 -37 38 -44
41 -37 13 8 -29 98 -107 133 -115 58 -13 46 -28 -17 -23 -102 10 -262 112
-278 179 -4 14 -27 47 -51 73 -25 25 -42 51 -39 56 3 6 1 10 -5 10 -6 0 -10 8
-8 17 2 11 -6 22 -20 28 -12 5 -25 17 -27 26 -7 21 -124 66 -133 52 -5 -7
-175 -12 -502 -16 -505 -5 -529 -7 -575 -45 -12 -10 -10 -6 5 12 23 27 24 28
3 17 -25 -13 -96 -96 -99 -116 -7 -45 -115 -182 -134 -170 -10 6 -9 10 4 17 9
5 16 14 16 20 0 9 -3 9 -12 0 -7 -7 -21 -12 -33 -12 -12 0 -30 -7 -41 -15 -19
-15 -19 -15 4 -34 12 -11 18 -22 13 -25 -5 -4 -19 6 -31 21 -18 23 -19 29 -7
38 23 17 54 134 49 187 -5 54 -32 74 -57 41 -14 -17 -14 -17 -15 5 0 12 -4 22
-9 22 -7 0 -16 41 -27 130 -2 17 -17 90 -38 190 -18 81 -42 169 -55 195 -30
63 -37 183 -20 325 6 52 12 104 13 116 1 11 6 25 10 32 4 7 4 18 0 25 -4 6 -3
8 2 4 10 -9 47 91 38 104 -3 5 -1 9 5 9 6 0 28 30 50 68 22 37 52 81 66 97 15
17 34 42 43 57 9 16 42 40 79 58 35 17 63 33 63 35 0 7 -104 -32 -166 -61 -32
-16 -65 -27 -73 -25 -9 1 -12 -3 -7 -14 3 -9 2 -14 -3 -11 -4 3 -23 -6 -41
-19 -19 -14 -28 -25 -21 -25 11 0 11 -3 1 -15 -7 -8 -16 -13 -20 -10 -5 3 -15
-4 -23 -15 -7 -11 -16 -17 -20 -14 -3 3 -16 -10 -29 -30 -20 -31 -46 -53 -53
-44 -5 7 31 310 52 438 3 19 9 43 14 52 5 9 9 30 9 46 0 15 9 71 20 123 12 52
23 108 26 124 3 17 10 39 15 50 5 11 24 81 43 155 36 137 99 332 137 418 150
344 293 592 383 665 24 20 77 59 117 87 80 55 79 64 -3 23 -76 -38 -135 -85
-196 -156 -170 -197 -309 -479 -456 -917 -46 -140 -159 -644 -171 -765 -4 -38
-13 -99 -22 -135 -8 -36 -20 -114 -28 -175 -7 -60 -23 -189 -35 -285 -19 -152
-21 -202 -15 -375 4 -110 9 -310 10 -445 2 -135 9 -318 16 -408 l11 -162 -28
-42 c-16 -24 -53 -67 -81 -97 -29 -31 -53 -61 -53 -67 0 -6 -12 -19 -26 -29
-30 -20 -146 -137 -140 -142 2 -2 28 19 58 46 36 33 90 67 161 100 l107 50 -4
-252 c-2 -139 -9 -267 -14 -284 -11 -33 -8 -224 4 -315 3 -29 2 -48 -4 -48 -5
0 -12 21 -15 46 -2 26 -11 50 -18 55 -10 6 -11 13 -2 31 13 25 12 106 -2 127
-5 9 -4 12 2 8 6 -4 10 11 11 36 1 23 4 70 5 104 4 64 -4 96 -18 74 -9 -16 -9
-146 0 -161 4 -7 3 -15 -3 -19 -17 -10 -24 -83 -10 -93 9 -5 9 -11 3 -15 -6
-5 -15 -27 -21 -51 -10 -36 -9 -45 2 -49 11 -4 12 -9 3 -19 -9 -11 -9 -14 0
-14 7 0 9 -4 6 -10 -12 -19 -25 -10 -26 18 -2 38 -28 -108 -35 -193 -3 -41 -1
-88 6 -115 20 -76 27 -149 16 -161 -8 -7 -7 -9 3 -7 7 2 16 -3 18 -9 3 -7 -3
-13 -12 -13 -9 0 -15 -6 -12 -12 2 -7 15 -13 28 -13 15 0 24 -6 25 -18 1 -12
1 -13 -3 -2 -6 19 -17 19 -32 1 -7 -8 -8 -17 -3 -20 6 -3 13 -22 16 -41 4 -20
16 -41 26 -48 11 -6 20 -18 20 -25 0 -9 6 -12 15 -8 8 3 15 1 15 -4 0 -5 16
-24 35 -41 19 -18 35 -37 35 -43 0 -15 40 -49 48 -41 3 3 1 15 -6 26 -7 11
-14 45 -17 77 -11 155 63 -125 161 -608 22 -110 92 -432 129 -590 7 -30 29
-131 49 -225 20 -93 55 -246 78 -340 23 -93 47 -195 54 -225 7 -30 35 -147 63
-260 74 -296 72 -288 57 -267 -16 21 -22 21 -30 1 -3 -8 1 -26 10 -40 9 -13
12 -24 8 -24 -5 0 -15 -9 -22 -21 -12 -19 -11 -20 7 -14 15 5 23 1 27 -12 3
-10 11 -28 17 -40 6 -13 7 -26 4 -30 -4 -3 -7 -1 -7 6 0 9 -4 9 -14 -1 -8 -7
-12 -16 -10 -19 2 -4 -3 -9 -11 -13 -8 -3 -17 -1 -20 4 -4 6 -1 10 6 10 7 0 9
3 6 7 -4 3 -16 -2 -26 -11 -16 -15 -23 -16 -42 -6 -12 7 -38 10 -58 7 -28 -5
-32 -4 -18 4 10 6 38 9 62 7 24 -1 41 0 38 5 -5 8 -85 10 -107 1 -9 -3 -16
-12 -16 -20 0 -16 -16 -19 -24 -5 -4 5 0 12 6 15 7 3 -15 4 -48 2 -56 -4 -61
-2 -57 15 4 14 0 19 -15 19 -11 0 -25 7 -32 15 -7 8 -18 15 -24 14 -21 -3 -36
1 -36 9 0 4 10 8 21 9 26 2 25 0 33 46 l7 37 -48 0 c-46 0 -47 1 -25 16 25 17
21 34 -9 34 -11 0 -22 7 -25 15 -11 28 -24 15 -24 -25 0 -38 -2 -40 -29 -40
-16 0 -31 5 -33 12 -3 8 -11 9 -24 3 -18 -8 -18 -9 4 -12 41 -8 22 -23 -28
-23 -27 0 -50 5 -50 10 0 6 5 10 10 10 6 0 10 5 10 12 0 9 -3 9 -12 0 -7 -7
-31 -12 -53 -12 -34 0 -44 5 -55 25 -10 20 -11 28 -2 37 17 17 15 38 -3 38 -9
0 -15 -7 -13 -16 2 -10 -3 -19 -9 -21 -7 -3 -13 0 -13 6 0 6 -5 11 -11 11 -7
0 -8 -14 -4 -40 6 -33 4 -40 -9 -40 -9 0 -16 6 -16 13 0 6 -9 23 -20 37 -30
39 -25 50 22 50 l42 0 -34 30 c-19 16 -31 29 -26 30 5 0 1 9 -9 20 -10 11 -15
28 -12 39 3 13 1 18 -8 14 -8 -2 -23 7 -35 20 -12 14 -33 28 -46 31 -26 7 -33
36 -9 36 24 0 17 17 -10 24 -18 5 -25 13 -25 30 0 13 -7 27 -16 30 -9 3 -14
12 -11 19 3 8 1 20 -4 28 -6 9 -9 10 -9 2 0 -15 -56 -6 -85 14 -18 12 -17 13
13 13 42 0 41 15 -3 36 -37 17 -43 29 -22 38 6 3 -1 3 -18 0 -22 -4 -26 -3
-16 4 12 9 13 15 3 37 -7 14 -17 23 -22 20 -15 -9 -12 2 5 19 9 9 11 17 5 21
-5 3 -10 1 -10 -4 0 -6 -6 -11 -14 -11 -9 0 -13 9 -11 25 2 20 0 23 -11 14
-11 -9 -15 -7 -20 5 -4 9 -15 14 -28 12 -11 -2 -15 -1 -8 1 10 4 10 8 1 19
-14 17 -9 17 25 4 18 -7 24 -15 20 -27 -5 -16 -4 -16 5 -1 7 10 19 14 31 11
11 -3 20 0 20 6 0 7 -10 10 -25 7 -19 -4 -25 0 -25 13 0 10 -9 26 -20 36 -11
10 -20 29 -20 41 0 18 -4 22 -17 17 -11 -5 -14 -3 -8 6 4 7 1 25 -6 39 -19 38
-49 77 -49 64 0 -6 -10 -1 -23 11 -23 22 -40 58 -51 109 -3 15 -15 30 -26 33
-23 7 -64 58 -79 97 -8 22 -8 26 4 21 8 -3 15 -1 15 5 0 12 -29 24 -41 16 -5
-3 -9 4 -9 15 0 15 4 19 18 14 15 -6 15 -4 -2 15 -24 28 -43 28 -51 1 -7 -20
-8 -20 -26 7 -41 61 -112 224 -99 224 6 0 10 7 10 15 0 8 5 15 11 15 17 0 1
17 -21 23 -18 4 -20 2 -14 -16 13 -44 -14 -2 -41 63 -15 36 -34 81 -42 100 -8
19 -19 44 -23 55 -5 11 -20 46 -34 79 -14 32 -26 65 -26 72 0 8 -4 14 -10 14
-5 0 -10 6 -10 13 0 10 -43 119 -79 202 -11 24 -91 254 -119 342 -11 33 -25
70 -31 81 -12 23 -3 36 14 19 8 -9 36 -12 86 -9 41 1 90 3 109 3 19 0 73 6
120 14 47 8 150 19 230 25 80 6 150 13 155 15 22 8 -155 4 -245 -6 -207 -21
-463 -30 -477 -15 -4 3 -7 14 -8 24 -1 9 -5 24 -7 32 -9 24 -56 190 -74 255
-8 33 -26 101 -39 150 -13 50 -33 140 -45 200 -11 61 -25 126 -30 145 -16 58
-41 243 -65 465 -18 177 -21 257 -19 510 3 403 12 667 25 740 5 33 16 98 24
145 7 47 20 106 29 132 9 26 18 65 21 85 5 57 56 257 68 268 7 7 8 6 3 -2 -4
-8 -1 -13 9 -13 13 0 14 4 5 20 -8 15 -8 18 4 14 9 -3 16 4 20 23 4 15 9 37
12 48 3 12 -1 9 -11 -8 -9 -16 -19 -26 -22 -23 -3 3 -2 11 4 18 5 7 18 47 28
88 72 293 339 846 515 1070 20 25 49 65 65 90 16 25 34 50 39 55 6 6 27 31 46
56 99 129 395 416 427 413 8 -1 12 0 9 3 -11 11 130 111 249 178 253 140 435
218 650 274 90 24 364 80 420 86 33 4 78 11 100 16 42 11 163 26 205 27 14 0
-2 -7 -35 -16z m-685 -86 c0 -4 -32 -15 -210 -70 -219 -68 -613 -286 -810
-449 -36 -30 -128 -115 -205 -190 l-140 -135 -91 -31 c-50 -17 -131 -37 -180
-46 -112 -20 -264 -33 -264 -23 0 4 8 8 18 8 33 0 140 66 127 78 -3 3 -15 -4
-28 -15 -12 -11 -40 -24 -62 -28 -22 -5 -42 -9 -45 -10 -23 -5 -69 -38 -65
-45 3 -6 -1 -7 -9 -4 -9 3 -16 2 -16 -4 0 -5 -7 -12 -15 -16 -8 -3 -15 -4 -15
-2 0 13 264 223 415 330 267 190 701 420 950 505 73 25 356 96 445 111 36 6
92 18 125 25 70 16 75 16 75 11z m-1447 -958 c-91 -118 -215 -313 -313 -493
-15 -27 -50 -92 -78 -142 -58 -107 -153 -338 -225 -548 -17 -49 -34 -91 -38
-93 -4 -2 -5 -12 -2 -22 3 -11 0 -20 -6 -20 -17 0 -13 60 4 67 14 5 14 8 -1
24 -15 17 -15 19 -1 19 16 0 33 52 23 69 -4 5 1 14 11 19 16 9 15 11 -2 28
-17 17 -17 17 -11 -4 5 -16 3 -24 -8 -28 -9 -3 -16 -10 -16 -16 0 -5 5 -6 10
-3 6 3 10 0 10 -9 0 -8 -13 -20 -30 -28 -16 -7 -30 -17 -30 -21 0 -5 5 -5 12
-1 8 5 9 2 5 -9 -3 -9 -2 -19 3 -22 18 -11 10 -25 -12 -25 -22 -1 -23 -1 -4
-15 17 -13 17 -15 4 -15 -9 0 -19 -8 -21 -17 -2 -10 -3 -6 -1 9 2 15 -3 34
-11 42 -20 19 -19 30 1 22 12 -5 14 -1 8 16 -3 12 -15 31 -25 42 -17 18 -19
18 -19 2 0 -9 -4 -15 -9 -12 -4 3 -8 24 -8 46 0 41 -12 66 -20 43 -3 -8 -22
-13 -44 -13 l-39 0 0 67 c0 48 5 72 17 85 15 17 15 19 -3 32 -17 13 -17 15 -2
21 13 5 14 12 7 38 -19 63 -19 64 24 82 l42 17 -37 12 c-38 12 -60 26 -39 26
8 0 7 5 -4 16 -13 13 -19 14 -28 4 -9 -10 -9 -14 1 -17 6 -3 12 -9 12 -15 0
-6 -7 -5 -16 3 -15 12 -16 11 -9 -10 5 -16 4 -21 -4 -17 -7 4 -11 -1 -11 -13
0 -28 -17 -35 -25 -10 -4 12 -1 27 8 37 8 9 26 37 40 62 14 25 42 61 61 80 20
19 36 40 36 45 0 6 14 16 31 24 20 9 27 16 19 21 -8 5 3 24 37 62 61 68 137
138 149 138 5 0 23 13 41 28 17 15 46 36 65 46 32 19 32 20 9 24 -13 2 -33 -1
-45 -7 -61 -31 -216 -74 -216 -61 0 5 8 15 18 22 10 7 21 21 25 31 4 10 11 15
17 12 5 -3 10 3 10 13 0 11 7 23 16 26 8 3 12 10 9 16 -4 6 -11 8 -16 5 -5 -4
-9 1 -9 9 0 9 5 16 10 16 6 0 10 -4 10 -9 0 -15 31 -22 48 -11 14 9 13 10 -5
5 -27 -7 -31 10 -6 19 15 6 15 8 3 17 -13 8 -13 10 0 19 29 19 -5 10 -38 -10
l-33 -20 11 20 c6 12 21 25 33 29 53 20 220 53 312 61 129 11 143 14 250 49
50 16 94 30 98 30 5 1 -13 -27 -40 -61z m-705 -182 c-17 -20 -36 -36 -42 -36
-5 0 7 18 29 40 48 49 58 46 13 -4z m-99 -103 c-24 -27 -48 -50 -53 -52 -5 -2
8 15 30 38 21 24 43 49 47 58 5 8 11 12 14 9 3 -3 -14 -27 -38 -53z m126 -51
c7 -4 -25 -43 -78 -97 -73 -75 -83 -82 -58 -44 17 26 42 54 56 63 14 9 23 21
20 26 -4 6 -1 10 5 10 6 0 8 5 5 10 -4 6 -15 8 -26 5 -31 -10 -22 4 14 19 38
17 48 18 62 8z m-361 -237 c-9 -14 -18 -25 -21 -25 -5 0 5 18 20 38 17 22 18
13 1 -13z m67 -255 c-4 -19 -13 -34 -19 -32 -7 1 -12 -9 -12 -23 0 -16 -6 -25
-16 -25 -20 0 -12 30 23 83 29 45 34 45 24 -3z m-83 10 c-7 -10 -14 -17 -17
-15 -4 4 18 35 25 35 2 0 -1 -9 -8 -20z m172 -51 c0 -23 -4 -30 -17 -27 -30 6
-18 54 15 58 1 0 2 -14 2 -31z m-80 -75 c0 -21 -17 -17 -23 5 -3 14 -1 18 9
14 8 -3 14 -11 14 -19z m80 -14 c0 -5 -9 -10 -20 -10 -11 0 -23 -6 -26 -14 -3
-8 -12 -17 -20 -20 -24 -9 -16 30 9 42 28 14 57 15 57 2z m-160 -24 c0 -3 -4
-8 -10 -11 -5 -3 -10 -1 -10 4 0 6 5 11 10 11 6 0 10 -2 10 -4z m-33 -28 c-3
-8 -6 -5 -6 6 -1 11 2 17 5 13 3 -3 4 -12 1 -19z m45 -36 c-7 -2 -13 -22 -14
-45 l-1 -42 -4 37 c-4 40 16 95 25 68 3 -7 0 -16 -6 -18z m2393 -12 c-3 -5
-12 -10 -18 -10 -7 0 -6 4 3 10 19 12 23 12 15 0z m-2569 -36 c-10 -14 -20
-23 -23 -21 -6 6 30 57 36 51 2 -2 -4 -15 -13 -30z m82 -19 c0 -30 -3 -53 -8
-50 -5 3 -11 -4 -15 -15 -3 -11 -13 -20 -20 -20 -8 0 -13 -6 -11 -12 12 -37
14 -78 6 -78 -6 0 -10 7 -10 15 0 8 -4 15 -10 15 -5 0 -10 -4 -10 -9 0 -5 -7
-12 -16 -15 -8 -3 -13 -2 -11 2 2 4 11 23 19 42 34 78 82 180 84 180 1 0 2
-25 2 -55z m2447 26 c-3 -6 -11 -11 -17 -11 -6 0 -6 6 2 15 14 17 26 13 15 -4z
m-2404 -28 c-12 -20 -14 -14 -5 12 4 9 9 14 11 11 3 -2 0 -13 -6 -23z m179
-53 c0 -22 5 -40 10 -40 21 0 8 -17 -25 -33 -39 -18 -125 -23 -125 -7 0 6 18
10 40 10 29 0 40 4 40 15 0 8 5 15 10 15 6 0 10 18 10 40 0 33 3 40 20 40 17
0 20 -7 20 -40z m100 24 c0 -14 -3 -14 -15 -4 -8 7 -15 14 -15 16 0 2 7 4 15
4 8 0 15 -7 15 -16z m2053 1 c-3 -9 -8 -14 -10 -11 -3 3 -2 9 2 15 9 16 15 13
8 -4z m-2494 -27 c-8 -14 -14 -18 -17 -10 -4 13 17 46 25 38 3 -2 -1 -15 -8
-28z m2496 -37 c-3 -12 -10 -21 -15 -21 -4 0 -3 11 3 24 14 29 22 27 12 -3z
m-2027 -107 c-2 -23 -4 -24 -15 -8 -17 23 -16 34 2 34 10 0 14 -9 13 -26z
m-448 0 c0 -8 -5 -12 -10 -9 -6 4 -8 11 -5 16 9 14 15 11 15 -7z m515 -34 c-3
-5 -2 -10 4 -10 5 0 11 5 13 12 2 6 9 9 14 7 7 -3 1 -39 -15 -96 -25 -90 -27
-93 -55 -93 -24 0 -26 2 -16 15 6 8 20 17 30 20 12 4 21 20 25 48 4 23 9 51
11 62 4 17 3 17 -9 -3 -13 -22 -13 -21 -13 13 0 19 4 35 9 35 4 0 5 -4 2 -10z
m-575 -91 c-15 -36 -17 -55 -10 -69 8 -15 6 -17 -9 -13 -16 4 -20 -3 -26 -39
-8 -47 -33 -98 -49 -98 -6 0 -5 5 2 12 7 7 12 21 12 33 0 40 75 225 91 225 5
0 0 -23 -11 -51z m40 7 c0 -3 -4 -8 -10 -11 -5 -3 -10 -1 -10 4 0 6 5 11 10
11 6 0 10 -2 10 -4z m-133 -28 c-3 -8 -6 -5 -6 6 -1 11 2 17 5 13 3 -3 4 -12
1 -19z m640 -155 c-8 -32 -23 -97 -32 -146 -10 -48 -20 -86 -21 -84 -9 9 -13
107 -4 102 6 -3 10 -1 10 4 0 6 -5 11 -10 11 -6 0 -4 10 5 23 8 13 12 27 8 30
-3 4 -1 7 4 7 6 0 14 19 18 43 4 23 12 53 17 67 17 42 20 5 5 -57z m-48 17 c1
-13 0 -13 -9 0 -5 8 -9 24 -9 35 l0 20 9 -20 c5 -11 9 -27 9 -35z m18 28 c-3
-8 -6 -5 -6 6 -1 11 2 17 5 13 3 -3 4 -12 1 -19z m-17 -64 c0 -8 -5 -12 -10
-9 -6 4 -8 11 -5 16 9 14 15 11 15 -7z m-591 -77 c12 -15 12 -17 -3 -11 -9 3
-16 13 -16 22 0 8 1 13 3 11 1 -2 9 -12 16 -22z m261 -2 c-9 -11 -30 -14 -74
-13 l-61 2 63 3 c34 2 62 8 62 13 0 6 5 10 11 10 8 0 8 -5 -1 -15z m3 -42 c-7
-2 -19 -2 -25 0 -7 3 -2 5 12 5 14 0 19 -2 13 -5z m-260 -10 c-7 -2 -19 -2
-25 0 -7 3 -2 5 12 5 14 0 19 -2 13 -5z m130 0 c-7 -2 -21 -2 -30 0 -10 3 -4
5 12 5 17 0 24 -2 18 -5z m-153 -63 c0 -5 -2 -10 -4 -10 -3 0 -8 5 -11 10 -3
6 -1 10 4 10 6 0 11 -4 11 -10z m-39 -23 c-10 -9 -11 -8 -5 6 3 10 9 15 12 12
3 -3 0 -11 -7 -18z m634 -44 c-10 -43 -21 -46 -23 -8 -2 27 1 35 14 35 13 0
15 -6 9 -27z m-635 -10 c-1 -24 -2 -26 -11 -10 -5 9 -7 22 -4 27 10 17 15 11
15 -17z m-35 -138 c-14 -53 -19 -37 -8 28 3 21 9 35 14 30 4 -4 1 -30 -6 -58z
m641 5 c-4 -54 -16 -64 -16 -13 0 34 6 53 16 53 1 0 1 -18 0 -40z m-36 -60 c0
-5 -5 -10 -11 -10 -5 0 -7 5 -4 10 3 6 8 10 11 10 2 0 4 -4 4 -10z m11 -175
c-6 -61 -11 -135 -11 -165 0 -29 -3 -50 -7 -46 -8 7 -6 133 2 146 3 5 1 12 -5
15 -8 5 -8 11 0 20 6 7 14 57 18 111 4 55 8 83 10 64 2 -19 -1 -84 -7 -145z
m-645 61 c-4 -19 -11 -38 -17 -42 -10 -6 -3 60 8 79 10 18 15 -4 9 -37z m-26
-136 c0 -5 -4 -10 -10 -10 -5 0 -10 5 -10 10 0 6 5 10 10 10 6 0 10 -4 10 -10z
m-8 -76 c-6 -35 -12 -29 -12 14 0 23 3 32 9 24 4 -7 6 -24 3 -38z m-15 -56
c-3 -8 -6 -5 -6 6 -1 11 2 17 5 13 3 -3 4 -12 1 -19z m670 -223 c-1 -165 -3
-195 -15 -190 -8 3 -20 -1 -26 -9 -12 -16 -136 -33 -136 -19 0 4 16 9 35 10
52 2 102 21 110 41 7 18 24 234 25 315 0 26 2 47 4 47 3 0 4 -88 3 -195z
m-680 148 c-3 -10 -5 -4 -5 12 0 17 2 24 5 18 2 -7 2 -21 0 -30z m-3 -151 c-4
-51 -11 -92 -16 -92 -6 0 -7 28 -3 68 14 147 29 166 19 24z m3551 72 c-9 -9
-19 -13 -23 -10 -3 4 0 11 8 16 24 15 33 11 15 -6z m135 6 c0 -5 -7 -7 -15 -4
-8 4 -15 8 -15 10 0 2 7 4 15 4 8 0 15 -4 15 -10z m-170 -4 c0 -8 -61 -12 -66
-4 -3 4 11 8 30 8 20 0 36 -2 36 -4z m-550 -46 c-18 -11 -40 -1 -40 17 0 8 5
11 10 8 6 -3 10 -1 10 5 0 6 7 4 17 -5 13 -14 14 -18 3 -25z m637 34 c-3 -3
-12 -4 -19 -1 -8 3 -5 6 6 6 11 1 17 -2 13 -5z m-188 -8 c-11 -9 -69 -15 -64
-6 3 6 20 10 37 10 17 0 29 -2 27 -4z m-519 -60 c0 -2 -7 -7 -16 -10 -8 -3
-12 -2 -9 4 6 10 25 14 25 6z m-2923 -158 c-3 -8 -6 -5 -6 6 -1 11 2 17 5 13
3 -3 4 -12 1 -19z m472 -70 c-30 -3 -121 -6 -204 -6 -122 0 -140 2 -95 9 30 5
90 6 133 3 44 -4 77 -2 77 3 0 5 28 7 61 5 51 -4 60 -2 53 9 -6 11 -3 10 11
-1 17 -14 14 -15 -36 -22z m2491 8 c0 -2 -7 -7 -16 -10 -8 -3 -12 -2 -9 4 6
10 25 14 25 6z m-2246 -67 c9 -87 8 -131 -3 -124 -6 3 -10 35 -10 70 0 77 -8
108 -24 98 -7 -4 -41 -8 -77 -9 l-65 -2 65 13 c111 22 106 24 114 -46z m-226
23 c-16 -2 -28 -7 -28 -11 0 -4 -54 -8 -120 -7 -66 1 -120 -2 -120 -6 0 -4
-15 -2 -32 3 -18 5 -46 9 -61 9 -16 0 -26 3 -24 8 3 4 97 7 209 7 111 0 191
-1 176 -3z m2332 4 c0 -2 -7 -9 -15 -16 -13 -11 -14 -10 -9 4 5 14 24 23 24
12z m215 -6 c3 5 12 10 18 10 16 -1 -23 -23 -45 -27 -12 -2 -15 2 -11 12 4 12
9 13 18 5 9 -8 15 -8 20 0z m-198 -30 c2 -17 -2 -20 -19 -15 -17 6 -19 4 -13
-14 7 -23 -5 -27 -36 -10 -15 8 -25 6 -44 -9 -24 -19 -24 -20 -5 -37 11 -10
20 -27 20 -38 0 -16 3 -17 15 -7 8 7 15 19 15 26 0 8 4 14 10 14 5 0 7 8 4 18
-5 13 -4 14 4 3 13 -18 44 -7 36 13 -3 9 3 19 16 26 20 11 21 10 9 -12 -11
-21 -11 -22 6 -8 9 8 34 16 54 17 l36 2 -35 -17 c-46 -21 -188 -154 -213 -197
-4 -8 -14 -12 -21 -9 -7 3 -16 -2 -19 -10 -4 -10 -1 -13 8 -10 10 4 9 -3 -3
-30 -10 -19 -19 -35 -22 -36 -13 -1 1 214 16 244 19 39 98 98 137 102 17 2 33
6 35 9 8 7 8 7 9 -15z m408 -30 c3 -5 1 -10 -4 -10 -6 0 -11 5 -11 10 0 6 2
10 4 10 3 0 8 -4 11 -10z m45 -6 c0 -2 -7 -4 -15 -4 -8 0 -15 4 -15 10 0 5 7
7 15 4 8 -4 15 -8 15 -10z m200 6 c11 -7 1 -10 -35 -10 -27 0 -57 5 -65 10
-11 7 -1 10 35 10 28 0 57 -5 65 -10z m-1025 -30 c-3 -5 -11 -10 -16 -10 -6 0
-7 5 -4 10 3 6 11 10 16 10 6 0 7 -4 4 -10z m305 3 c-1 -18 -19 -35 -29 -28
-9 5 -9 10 0 21 12 15 29 19 29 7z m1647 1 c-3 -3 -12 -4 -19 -1 -8 3 -5 6 6
6 11 1 17 -2 13 -5z m-1305 -23 c15 -18 15 -19 -2 -24 -13 -3 -17 0 -13 9 3 8
0 14 -6 14 -6 0 -11 5 -11 10 0 16 14 12 32 -9z m50 7 c-9 -9 -15 -9 -24 0 -9
9 -7 12 12 12 19 0 21 -3 12 -12z m43 2 c3 -5 -1 -10 -9 -10 -9 0 -16 5 -16
10 0 6 4 10 9 10 6 0 13 -4 16 -10z m99 -9 c3 -5 -1 -12 -10 -15 -25 -10 -34
-7 -34 9 0 16 35 21 44 6z m-232 -33 c-9 -9 -12 -7 -12 12 0 19 3 21 12 12 9
-9 9 -15 0 -24z m298 17 c-7 -8 -16 -15 -21 -15 -5 0 -9 7 -9 15 0 9 9 15 21
15 18 0 19 -2 9 -15z m370 -10 c0 -8 -7 -15 -15 -15 -8 0 -15 7 -15 15 0 8 7
15 15 15 8 0 15 -7 15 -15z m774 -3 c2 -4 -4 -9 -15 -9 -10 -1 -19 2 -19 8 0
11 27 12 34 1z m-3784 -162 c5 -74 12 -153 15 -175 3 -21 3 -37 1 -34 -8 8
-26 107 -28 151 -1 22 -5 35 -11 31 -6 -4 -7 -1 -2 7 4 7 7 47 6 89 -4 118 7
79 19 -69z m3890 105 c0 -8 -7 -15 -15 -15 -8 0 -15 7 -15 15 0 8 7 15 15 15
8 0 15 -7 15 -15z m-320 -20 c0 -8 -7 -15 -16 -15 -14 0 -14 3 -4 15 7 8 14
15 16 15 2 0 4 -7 4 -15z m340 -26 c-9 -16 -8 -28 4 -53 17 -37 12 -99 -10
-117 -8 -6 -14 -27 -14 -45 0 -28 -4 -34 -21 -34 -11 0 -17 5 -14 10 3 6 2 10
-4 10 -6 0 -6 12 0 35 12 43 5 71 -22 85 -12 7 -19 21 -19 42 0 30 1 31 19 14
28 -26 55 -17 59 19 4 41 10 55 22 55 7 0 7 -6 0 -21z m93 -44 c-3 -8 -9 -15
-13 -15 -5 0 -6 -8 -3 -19 3 -10 0 -22 -6 -25 -15 -10 -14 39 1 63 13 22 30
18 21 -4z m-693 -49 c0 -2 -13 -6 -30 -8 -16 -3 -30 -1 -30 4 0 4 14 8 30 8
17 0 30 -2 30 -4z m760 -10 c0 -3 -4 -8 -10 -11 -5 -3 -10 -1 -10 4 0 6 5 11
10 11 6 0 10 -2 10 -4z m-114 -21 c9 -8 11 -15 6 -15 -5 0 -15 7 -22 15 -7 8
-9 15 -6 15 4 0 14 -7 22 -15z m99 -3 c14 -10 12 -58 -2 -73 -10 -10 -16 -5
-28 25 -9 20 -13 41 -10 46 7 12 26 13 40 2z m50 -42 c6 -31 5 -33 -8 -20 -15
15 -20 32 -18 60 2 23 18 -2 26 -40z m-792 23 c-13 -2 -33 -2 -45 0 -13 2 -3
4 22 4 25 0 35 -2 23 -4z m-4036 -25 c-3 -8 -6 -5 -6 6 -1 11 2 17 5 13 3 -3
4 -12 1 -19z m4313 -43 c10 -12 10 -15 -4 -15 -9 0 -16 7 -16 15 0 8 2 15 4
15 2 0 9 -7 16 -15z m510 -5 c0 -5 -9 -10 -20 -10 -11 0 -20 5 -20 10 0 6 9
10 20 10 11 0 20 -4 20 -10z m-450 -20 c0 -5 -2 -10 -4 -10 -3 0 -8 5 -11 10
-3 6 -1 10 4 10 6 0 11 -4 11 -10z m491 -20 c-13 -8 -9 -41 5 -36 9 3 11 -5 9
-30 -2 -19 1 -37 6 -40 5 -3 9 3 9 13 1 17 1 17 11 0 12 -20 4 -37 -17 -37 -8
0 -15 -4 -15 -10 -1 -5 -2 -14 -3 -19 0 -5 -5 -13 -10 -18 -5 -5 -6 8 -3 30 5
32 4 35 -9 23 -8 -8 -14 -31 -14 -50 0 -20 -4 -36 -10 -36 -5 0 -10 9 -10 21
0 12 -8 23 -20 26 -16 4 -17 7 -5 19 7 8 18 14 24 14 6 0 11 12 11 28 0 21 2
24 10 12 8 -12 10 -11 10 6 0 20 -17 34 -41 34 -5 0 -9 -7 -9 -15 0 -8 -4 -15
-9 -15 -19 0 -4 46 24 76 24 25 33 29 47 20 9 -5 14 -13 9 -16z m-337 -4 c-3
-9 -12 -16 -20 -16 -21 0 -17 -17 5 -23 13 -3 18 0 15 8 -3 7 2 15 10 18 10 4
16 1 16 -8 0 -8 7 -15 15 -15 22 0 18 -19 -7 -40 -13 -10 -20 -22 -15 -26 4
-4 8 -5 10 -3 1 2 17 21 34 41 26 31 33 34 37 20 8 -29 4 -162 -6 -162 -5 0
-6 -4 -3 -10 3 -5 4 -10 2 -10 -2 0 -23 31 -48 70 -42 67 -61 82 -74 60 -3 -5
-12 -10 -18 -10 -7 0 -3 7 7 15 19 14 18 15 -5 23 -13 5 -36 6 -52 1 -16 -5
-25 -4 -22 2 4 5 15 9 26 9 10 0 19 4 19 10 0 5 15 1 33 -10 36 -22 57 -26 57
-9 0 5 -5 7 -10 4 -6 -3 -17 0 -25 8 -8 9 -20 17 -27 19 -10 4 -8 9 4 21 9 9
21 17 27 17 6 0 11 5 11 12 0 6 2 9 5 6 3 -3 3 -13 -1 -22z m-4506 -79 c0 -40
-2 -46 -8 -27 -11 34 -12 109 -1 92 4 -7 8 -36 9 -65z m2661 -37 c-6 -52 -13
-97 -16 -100 -7 -6 4 146 13 178 12 41 12 19 3 -78z m580 61 c7 -5 9 -11 5
-14 -5 -3 -15 1 -22 9 -14 16 -5 18 17 5z m781 5 c0 -3 -4 -8 -10 -11 -5 -3
-10 -1 -10 4 0 6 5 11 10 11 6 0 10 -2 10 -4z m47 -23 c-3 -3 -11 -2 -17 2 -9
6 -9 10 1 16 14 8 27 -7 16 -18z m-765 -5 c-7 -7 -12 -8 -12 -2 0 14 12 26 19
19 2 -3 -1 -11 -7 -17z m798 12 c0 -5 -2 -10 -4 -10 -3 0 -8 5 -11 10 -3 6 -1
10 4 10 6 0 11 -4 11 -10z m-402 -17 c-2 -9 -8 -18 -15 -20 -7 -3 -9 3 -6 16
6 25 26 28 21 4z m745 0 c-7 -2 -19 -2 -25 0 -7 3 -2 5 12 5 14 0 19 -2 13 -5z
m-1131 -30 c55 -46 58 -50 58 -89 0 -36 -1 -37 -15 -18 -15 19 -16 19 -14 -1
4 -61 -2 -79 -43 -120 -36 -35 -49 -42 -78 -41 -76 4 -137 58 -142 126 -3 39
1 48 30 75 53 49 59 54 85 60 28 8 107 -11 107 -25 0 -6 5 -10 10 -10 17 0 11
18 -8 24 -19 6 -48 46 -33 46 5 0 24 -12 43 -27z m328 7 c-8 -5 -17 -7 -19 -4
-3 3 1 9 9 14 8 5 17 7 19 4 3 -3 -1 -9 -9 -14z m430 5 c7 -8 17 -15 22 -15 6
0 5 7 -2 15 -7 8 -9 15 -4 15 5 0 16 -13 26 -29 13 -23 21 -28 39 -24 15 4 20
3 15 -6 -4 -6 -12 -9 -17 -6 -11 7 -12 -7 -1 -21 4 -5 -3 1 -15 13 -12 13 -25
24 -27 24 -27 3 -46 14 -46 24 0 7 -6 16 -12 18 -8 4 -9 6 -2 6 6 1 17 -6 24
-14z m305 5 c-3 -5 -10 -10 -16 -10 -5 0 -9 5 -9 10 0 6 7 10 16 10 8 0 12 -4
9 -10z m-640 -21 c0 -9 6 -24 14 -33 17 -20 3 -20 -23 -1 -11 8 -27 15 -35 14
-11 0 -9 -4 6 -11 24 -11 63 -82 63 -112 0 -32 -32 -87 -59 -100 -53 -27 -98
-29 -130 -5 -34 25 -57 72 -53 109 5 38 25 80 39 80 7 0 13 11 13 24 0 22 4
24 41 22 22 -1 42 1 45 6 3 4 14 8 25 8 10 0 19 5 19 11 0 6 8 9 18 7 9 -2 17
-11 17 -19z m690 12 c3 -5 -11 -15 -30 -22 -19 -7 -35 -17 -35 -21 0 -4 -11
-8 -24 -8 -14 0 -28 -5 -31 -10 -7 -12 -25 -4 -25 11 0 6 4 8 9 5 5 -3 14 1
21 8 6 8 25 18 41 21 16 4 31 11 34 16 8 12 32 12 40 0z m-407 -22 c-7 -5 -26
-8 -43 -8 -21 1 -24 3 -10 6 11 3 24 9 29 13 5 5 15 6 23 3 12 -5 12 -7 1 -14z
m-912 -11 c-5 8 0 12 15 12 21 0 21 -1 5 -19 -19 -21 -43 -19 -43 4 0 12 3 12
16 2 12 -9 13 -9 7 1z m377 -3 c-3 -9 -8 -14 -10 -11 -3 3 -2 9 2 15 9 16 15
13 8 -4z m68 -8 c-10 -9 -11 -8 -5 6 3 10 9 15 12 12 3 -3 0 -11 -7 -18z m556
-14 c63 -46 62 -140 -2 -189 -41 -31 -87 -34 -138 -9 -41 19 -55 51 -59 129
-3 43 0 51 19 61 13 7 21 14 18 17 -3 3 7 6 22 6 16 1 42 5 58 10 33 10 36 9
82 -25z m435 -6 c21 -24 28 -43 28 -77 1 -42 2 -44 15 -26 8 11 18 16 22 11 5
-4 2 -10 -4 -12 -7 -3 -14 -17 -14 -31 -1 -17 -3 -21 -6 -9 -2 9 -9 17 -14 17
-14 0 -11 -26 6 -40 8 -7 12 -17 8 -23 -4 -6 -10 -1 -15 12 l-8 23 -31 -31
c-26 -26 -38 -31 -78 -31 -39 0 -54 6 -85 33 -46 39 -58 85 -39 143 11 33 22
45 51 57 81 35 125 31 164 -16z m-1012 -1 c0 -3 -4 -8 -10 -11 -5 -3 -10 -1
-10 4 0 6 5 11 10 11 6 0 10 -2 10 -4z m653 -11 c4 -8 3 -16 -1 -19 -4 -3 -9
4 -9 15 -2 23 3 25 10 4z m487 -10 c0 -17 -5 -25 -17 -24 -11 0 -13 3 -5 6 6
2 12 13 12 24 0 10 2 19 5 19 3 0 5 -11 5 -25z m209 -47 c0 -40 2 -85 6 -100
4 -15 1 -43 -5 -64 -11 -32 -10 -39 8 -64 20 -26 20 -40 0 -40 -4 0 -8 9 -8
20 0 11 -5 20 -11 20 -16 0 -39 -26 -39 -44 0 -9 -5 -16 -12 -16 -9 0 -9 -3 0
-12 10 -10 15 -10 22 2 5 8 10 23 10 33 0 9 5 17 10 17 6 0 10 -9 10 -20 0
-11 -6 -20 -12 -20 -10 0 -10 -2 0 -9 10 -6 5 -11 -17 -21 -28 -11 -44 -40
-22 -40 16 0 22 -49 9 -70 -15 -24 -24 -25 -31 -6 -4 10 -1 13 9 9 10 -4 14 2
14 21 0 19 -6 27 -26 32 -18 5 -22 10 -15 17 7 7 7 15 -1 24 -13 15 7 58 43
94 10 10 16 25 13 34 -3 8 -1 28 4 45 7 18 7 30 1 30 -5 0 -9 -9 -9 -21 0 -16
-4 -19 -20 -14 -14 5 -20 2 -20 -9 0 -9 -9 -16 -20 -16 -11 0 -20 5 -20 11 0
7 -6 17 -13 23 -9 7 -12 26 -9 59 4 52 19 63 24 20 l4 -28 14 28 c9 18 21 27
37 27 19 0 23 -5 23 -32 0 -25 3 -29 10 -18 14 22 12 117 -2 123 -7 3 -3 6 10
6 15 1 22 7 22 21 0 11 2 20 5 20 3 0 5 -33 4 -72z m-568 39 c-10 -9 -11 -8
-5 6 3 10 9 15 12 12 3 -3 0 -11 -7 -18z m-3574 -19 c-3 -8 -6 -5 -6 6 -1 11
2 17 5 13 3 -3 4 -12 1 -19z m3446 -49 c-8 -29 -13 -23 -13 14 0 22 3 28 9 18
5 -7 6 -22 4 -32z m487 21 c0 -5 -5 -10 -11 -10 -5 0 -7 5 -4 10 3 6 8 10 11
10 2 0 4 -4 4 -10z m-780 -10 c0 -5 -5 -10 -11 -10 -5 0 -7 5 -4 10 3 6 8 10
11 10 2 0 4 -4 4 -10z m-3143 -22 c-3 -8 -6 -5 -6 6 -1 11 2 17 5 13 3 -3 4
-12 1 -19z m2620 0 c-3 -8 -6 -5 -6 6 -1 11 2 17 5 13 3 -3 4 -12 1 -19z m528
-37 c-3 -12 -11 -21 -17 -21 -5 0 -7 7 -4 16 3 9 6 23 6 32 0 12 3 13 11 5 6
-6 8 -20 4 -32z m-844 -14 c-8 -8 -11 -5 -11 9 0 27 14 41 18 19 2 -9 -1 -22
-7 -28z m436 21 c-3 -8 -6 -5 -6 6 -1 11 2 17 5 13 3 -3 4 -12 1 -19z m693 8
c0 -3 -4 -8 -10 -11 -5 -3 -10 -1 -10 4 0 6 5 11 10 11 6 0 10 -2 10 -4z
m-4163 -38 c-3 -7 -5 -2 -5 12 0 14 2 19 5 13 2 -7 2 -19 0 -25z m3093 -18 c0
-3 -8 -6 -19 -6 -13 0 -18 8 -19 31 l-1 30 19 -25 c11 -14 20 -27 20 -30z
m1253 -14 c19 -14 45 -26 58 -27 13 -1 35 -5 49 -9 19 -6 11 -7 -27 -7 -29 1
-53 5 -53 10 0 4 -4 5 -10 2 -5 -3 -15 3 -22 15 -7 11 -21 20 -31 20 -10 0
-16 4 -13 9 4 5 1 11 -5 13 -6 2 -7 11 -3 22 7 18 8 18 15 -1 4 -12 23 -33 42
-47z m-1716 22 c-3 -7 -5 -2 -5 12 0 14 2 19 5 13 2 -7 2 -19 0 -25z m1128 22
c3 -5 1 -10 -4 -10 -6 0 -11 5 -11 10 0 6 2 10 4 10 3 0 8 -4 11 -10z m1142
-72 c-2 -18 -4 -6 -4 27 0 33 2 48 4 33 2 -15 2 -42 0 -60z m-761 54 c0 -10
-8 -19 -18 -19 -15 -2 -16 1 -5 18 15 24 23 24 23 1z m-636 -7 c0 -9 -6 -12
-16 -8 -13 5 -13 7 -2 14 17 11 18 11 18 -6z m405 -5 c3 -6 -1 -7 -9 -4 -18 7
-21 14 -7 14 6 0 13 -4 16 -10z m-765 -24 c0 -3 -4 -8 -10 -11 -5 -3 -10 -1
-10 4 0 6 5 11 10 11 6 0 10 -2 10 -4z m397 -28 c-3 -7 -5 -2 -5 12 0 14 2 19
5 13 2 -7 2 -19 0 -25z m543 22 c0 -5 -10 -10 -22 -9 -22 0 -22 1 -3 9 11 5
21 9 23 9 1 1 2 -3 2 -9z m462 -12 c-7 -7 -12 -8 -12 -2 0 14 12 26 19 19 2
-3 -1 -11 -7 -17z m-1447 2 c3 -5 1 -10 -4 -10 -6 0 -11 5 -11 10 0 6 2 10 4
10 3 0 8 -4 11 -10z m875 -5 c0 -8 -4 -15 -8 -15 -5 0 -9 7 -9 15 0 8 4 15 9
15 4 0 8 -7 8 -15z m530 11 c0 -3 -4 -8 -10 -11 -5 -3 -10 -1 -10 4 0 6 5 11
10 11 6 0 10 -2 10 -4z m-849 -15 c-8 -5 -20 -7 -28 -4 -21 8 -15 13 15 13 20
0 23 -3 13 -9z m369 5 c0 -11 -19 -15 -25 -6 -3 5 1 10 9 10 9 0 16 -2 16 -4z
m-845 -16 c3 -5 -1 -10 -10 -10 -9 0 -13 5 -10 10 3 6 8 10 10 10 2 0 7 -4 10
-10z m-3138 -32 c-3 -7 -5 -2 -5 12 0 14 2 19 5 13 2 -7 2 -19 0 -25z m4329
17 c16 -8 22 -15 14 -15 -8 1 -24 7 -34 15 -25 19 -16 19 20 0z m118 1 c-10
-8 -21 -12 -24 -10 -5 6 21 24 34 24 6 0 1 -6 -10 -14z m-829 -6 c-3 -5 -12
-10 -18 -10 -7 0 -6 4 3 10 19 12 23 12 15 0z m782 -6 c-3 -3 -12 -4 -19 -1
-8 3 -5 6 6 6 11 1 17 -2 13 -5z m333 -23 c0 -14 -5 -18 -20 -14 -11 3 -20 12
-20 19 0 8 9 14 20 14 13 0 20 -7 20 -19z m-2244 -57 c3 -19 4 -38 0 -41 -3
-4 -6 1 -6 10 0 8 -4 17 -8 19 -5 2 -12 15 -16 30 -5 22 -3 26 9 22 8 -3 17
-21 21 -40z m-1729 -56 c-3 -8 -6 -5 -6 6 -1 11 2 17 5 13 3 -3 4 -12 1 -19z
m4060 -1 c-6 -13 -17 -24 -24 -24 -9 0 -5 9 9 24 12 13 23 23 24 23 1 0 -3
-10 -9 -23z m-2298 -134 c12 -57 24 -120 26 -140 3 -21 7 -56 10 -78 5 -29 3
-36 -4 -25 -6 8 -11 25 -11 37 0 15 -5 21 -14 17 -23 -9 -46 36 -46 88 0 39
-3 48 -17 49 -10 0 -13 3 -7 5 8 3 11 30 8 82 -2 56 0 72 7 59 6 -9 12 -42 14
-73 1 -31 8 -61 15 -67 12 -12 8 41 -10 127 -5 21 -5 34 0 30 4 -5 17 -55 29
-111z m-2489 103 c0 -3 -4 -8 -10 -11 -5 -3 -10 -1 -10 4 0 6 5 11 10 11 6 0
10 -2 10 -4z m4710 -15 c0 -12 -20 -25 -27 -18 -7 7 6 27 18 27 5 0 9 -4 9 -9z
m-4713 -53 c-3 -8 -6 -5 -6 6 -1 11 2 17 5 13 3 -3 4 -12 1 -19z m4689 -10 c4
-7 3 -8 -4 -4 -7 4 -12 2 -12 -5 0 -7 -3 -10 -6 -6 -6 5 3 27 11 27 2 0 7 -5
11 -12z m-2266 -8 c0 -5 -2 -10 -4 -10 -3 0 -8 5 -11 10 -3 6 -1 10 4 10 6 0
11 -4 11 -10z m2282 -22 c-7 -7 -12 -8 -12 -2 0 14 12 26 19 19 2 -3 -1 -11
-7 -17z m-4683 -31 c0 -21 -1 -21 -9 -2 -12 28 -12 37 0 30 6 -3 10 -16 9 -28z
m4646 -17 c-10 -11 -23 -20 -29 -20 -6 0 -3 5 7 11 9 5 17 20 17 31 0 17 3 19
12 10 9 -9 7 -16 -7 -32z m-546 -129 c-6 -2 -15 3 -20 10 -15 24 -10 29 11 11
12 -10 16 -18 9 -21z m340 7 c-24 -20 -39 -23 -39 -7 0 5 5 7 12 3 7 -5 9 -2
5 8 -4 12 1 15 19 14 l25 -1 -22 -17z m-3647 -30 c-7 -7 -12 -8 -12 -2 0 14
12 26 19 19 2 -3 -1 -11 -7 -17z m3478 -18 c0 -5 -7 -10 -15 -10 -8 0 -15 5
-15 10 0 6 7 10 15 10 8 0 15 -4 15 -10z m-313 -6 c-3 -3 -12 -4 -19 -1 -8 3
-5 6 6 6 11 1 17 -2 13 -5z m450 -16 c-3 -8 -6 -5 -6 6 -1 11 2 17 5 13 3 -3
4 -12 1 -19z m-1890 -70 c-3 -8 -6 -5 -6 6 -1 11 2 17 5 13 3 -3 4 -12 1 -19z
m1630 -30 c-3 -7 -5 -2 -5 12 0 14 2 19 5 13 2 -7 2 -19 0 -25z m-3431 -13
c-44 -14 -87 -25 -96 -25 -9 0 -20 -4 -26 -10 -5 -5 -30 -14 -54 -19 -70 -15
-240 -60 -251 -66 -5 -4 -9 -3 -9 2 0 13 52 33 86 33 18 0 36 5 39 10 3 6 17
10 31 10 13 0 24 5 24 10 0 6 8 10 18 10 10 0 42 7 72 15 138 38 187 50 215
52 17 1 -6 -9 -49 -22z m-602 -31 c3 -8 2 -12 -4 -9 -6 3 -10 10 -10 16 0 14
7 11 14 -7z m6525 -4 c157 -37 216 -52 236 -60 11 -4 61 -22 110 -40 93 -33
365 -168 365 -181 0 -4 11 -10 25 -13 29 -7 29 -6 -31 -135 -51 -107 -132
-251 -218 -384 -32 -50 -79 -125 -105 -167 -92 -147 -293 -405 -449 -574 -277
-300 -459 -494 -572 -611 -59 -60 -137 -146 -174 -190 -37 -44 -78 -91 -90
-105 -54 -58 -146 -170 -200 -242 -32 -43 -62 -78 -67 -78 -4 0 -19 4 -33 10
-15 5 -52 14 -84 19 -31 6 -68 13 -82 17 -18 5 -22 4 -15 -4 10 -11 70 -27
135 -37 70 -11 69 -13 -40 -156 -56 -74 -131 -168 -167 -211 -66 -78 -148
-190 -230 -313 -26 -38 -86 -109 -134 -157 -48 -49 -84 -90 -79 -93 4 -2 18 6
31 18 13 13 32 27 42 30 10 4 15 12 12 17 -4 6 -2 9 3 8 11 -3 72 69 72 85 0
6 3 8 6 4 8 -8 -32 -74 -70 -115 -37 -40 -74 -57 -176 -83 -88 -22 -90 -22
-90 -8 0 5 14 15 30 20 17 6 30 16 30 22 0 7 -4 7 -12 -1 -19 -19 -33 -14 -15
6 10 10 17 21 17 24 0 3 18 35 40 69 22 35 59 100 81 144 39 75 187 327 320
546 33 53 59 101 59 107 0 16 18 24 33 15 23 -15 247 -50 247 -39 0 6 -50 21
-111 33 -61 11 -116 26 -121 31 -10 10 -3 25 41 97 47 76 174 279 276 440 319
502 535 928 800 1575 24 60 74 193 113 300 9 25 21 54 27 65 6 11 34 86 60
168 27 81 53 147 58 147 5 0 48 -9 96 -20z m-5876 -11 c-5 -5 -29 -12 -53 -14
-52 -5 -46 6 7 12 20 2 39 6 42 8 2 3 7 5 10 5 3 0 0 -5 -6 -11z m-123 -29
c-8 -5 -22 -9 -30 -9 -10 0 -8 3 5 9 27 12 43 12 25 0z m-53 -16 c-3 -3 -12
-4 -19 -1 -8 3 -5 6 6 6 11 1 17 -2 13 -5z m-52 -13 c-11 -5 -36 -11 -55 -14
-35 -6 -34 -6 5 8 43 14 84 19 50 6z m-280 -29 c-3 -3 -11 0 -18 7 -9 10 -8
11 6 5 10 -3 15 -9 12 -12z m182 2 c-3 -3 -12 -4 -19 -1 -8 3 -5 6 6 6 11 1
17 -2 13 -5z m3920 -16 c-3 -8 -6 -5 -6 6 -1 11 2 17 5 13 3 -3 4 -12 1 -19z
m-3959 7 c-11 -11 -68 -23 -68 -15 0 5 12 11 28 13 15 2 31 5 36 6 5 0 7 -1 4
-4z m-78 -25 c0 -5 -7 -10 -16 -10 -8 0 -12 5 -9 10 3 6 10 10 16 10 5 0 9 -4
9 -10z m4037 -42 c-3 -7 -5 -2 -5 12 0 14 2 19 5 13 2 -7 2 -19 0 -25z m-44
-66 c-3 -7 -9 -10 -12 -5 -3 4 -10 11 -15 15 -4 4 1 6 12 5 12 -1 18 -6 15
-15z m147 9 c0 -6 -4 -13 -10 -16 -5 -3 -10 1 -10 9 0 9 5 16 10 16 6 0 10 -4
10 -9z m165 -221 c3 -6 -1 -7 -9 -4 -18 7 -21 14 -7 14 6 0 13 -4 16 -10z
m-1898 -102 c-3 -8 -6 -5 -6 6 -1 11 2 17 5 13 3 -3 4 -12 1 -19z m2013 12 c8
-5 11 -10 5 -10 -5 0 -17 5 -25 10 -8 5 -10 10 -5 10 6 0 17 -5 25 -10z m-555
-170 c3 -6 -1 -7 -9 -4 -18 7 -21 14 -7 14 6 0 13 -4 16 -10z m40 -30 c3 -6
-1 -7 -9 -4 -18 7 -21 14 -7 14 6 0 13 -4 16 -10z m-3042 -149 c3 -14 1 -18
-9 -14 -15 6 -18 16 -7 26 9 10 10 9 16 -12z m3518 -24 c-10 -9 -11 -8 -5 6 3
10 9 15 12 12 3 -3 0 -11 -7 -18z m-26 -148 c-21 -83 -23 -87 -19 -39 3 30 9
59 15 65 5 5 9 21 9 35 0 24 9 44 16 37 2 -2 -7 -46 -21 -98z m-28 -136 c-3
-10 -5 -4 -5 12 0 17 2 24 5 18 2 -7 2 -21 0 -30z m-15 -65 c-6 -6 -7 0 -4 19
5 21 7 23 10 9 2 -10 0 -22 -6 -28z m-3268 -34 c3 -8 2 -12 -4 -9 -6 3 -10 10
-10 16 0 14 7 11 14 -7z m3242 -76 c-3 -13 -5 -31 -5 -41 -1 -10 -5 -16 -10
-13 -8 5 -7 27 5 64 6 21 14 13 10 -10z m-3026 -59 c0 -6 -4 -7 -10 -4 -5 3
-10 11 -10 16 0 6 5 7 10 4 6 -3 10 -11 10 -16z m3001 -61 l-10 -33 1 35 c2
38 9 61 15 43 2 -6 0 -26 -6 -45z m-2935 21 c3 -5 -8 -9 -24 -9 -17 0 -32 6
-35 13 -4 10 3 12 24 9 16 -2 32 -8 35 -13z m31 -25 c-3 -3 -12 -4 -19 -1 -8
3 -5 6 6 6 11 1 17 -2 13 -5z m-22 -45 c4 -16 11 -27 16 -23 5 3 9 2 10 -3 0
-4 2 -23 3 -40 2 -18 0 -33 -5 -33 -5 0 -9 7 -9 15 0 8 -14 34 -31 59 -31 43
-33 71 -4 60 7 -3 17 -19 20 -35z m2912 -11 c-3 -8 -6 -5 -6 6 -1 11 2 17 5
13 3 -3 4 -12 1 -19z m-3556 -35 c13 -16 12 -17 -3 -4 -10 7 -18 15 -18 17 0
8 8 3 21 -13z m3543 -30 c-12 -66 -23 -93 -19 -48 2 22 4 50 4 63 1 12 6 22
11 22 7 0 8 -14 4 -37z m-2828 -88 c4 -14 4 -29 0 -32 -3 -4 -6 3 -6 15 0 12
-4 22 -10 22 -5 0 -10 5 -10 10 0 21 20 9 26 -15z m4760 -18 c-15 -19 -26 -38
-26 -44 0 -12 -63 -116 -154 -258 -40 -60 -94 -145 -121 -188 -28 -43 -72
-113 -99 -155 -69 -107 -446 -672 -541 -812 -119 -174 -298 -439 -398 -590
-49 -74 -121 -182 -160 -240 -71 -107 -170 -269 -337 -553 -92 -157 -128 -202
-72 -91 16 33 33 70 37 84 4 14 46 115 93 225 47 110 86 211 87 225 2 14 10
52 19 85 20 73 32 250 17 240 -6 -3 -11 -39 -11 -80 0 -115 -34 -222 -195
-615 -37 -91 -81 -200 -96 -243 -29 -80 -131 -283 -152 -303 -16 -14 -117 -6
-117 9 1 28 71 323 105 437 20 69 40 139 45 155 14 52 61 199 70 220 4 11 27
72 50 135 42 115 107 267 121 283 4 5 37 19 74 32 37 13 76 32 87 42 33 29
137 171 168 229 30 55 162 241 202 284 20 22 149 189 188 244 39 56 126 165
189 239 38 45 103 121 143 168 40 47 170 191 288 320 118 129 257 281 309 339
78 88 198 208 209 210 2 0 -8 -15 -22 -33z m-1979 -89 c-3 -8 -6 -5 -6 6 -1
11 2 17 5 13 3 -3 4 -12 1 -19z m-2723 -24 c3 -8 2 -12 -4 -9 -6 3 -10 10 -10
16 0 14 7 11 14 -7z m2713 -16 c-3 -8 -6 -5 -6 6 -1 11 2 17 5 13 3 -3 4 -12
1 -19z m-11 -64 c-4 -20 -10 -34 -12 -31 -3 3 -2 21 2 41 3 21 9 35 11 32 3
-3 2 -21 -1 -42z m-3380 -66 c68 -71 242 -238 247 -238 9 0 208 -201 306 -310
57 -63 142 -157 190 -209 47 -51 91 -104 97 -117 5 -14 13 -22 16 -19 3 4 9 1
14 -6 4 -8 3 -10 -4 -5 -22 13 -12 -9 45 -104 80 -134 183 -312 183 -316 0 -2
17 -32 38 -66 21 -35 65 -130 97 -213 125 -322 269 -665 279 -665 3 0 1 10 -3
23 -20 50 -114 275 -131 312 -9 22 -34 85 -55 140 -64 173 -107 278 -139 345
-35 70 -155 289 -169 305 -29 36 -128 207 -122 213 4 4 16 -4 27 -18 11 -14
29 -36 41 -50 12 -14 49 -59 82 -100 33 -41 68 -83 78 -95 10 -11 24 -27 31
-35 17 -19 172 -218 261 -335 38 -49 87 -111 109 -137 23 -26 63 -74 91 -107
27 -34 54 -61 59 -61 5 0 17 6 25 14 10 9 42 15 85 17 l69 2 19 -74 c11 -41
24 -90 28 -109 13 -58 93 -341 125 -440 57 -182 135 -442 176 -590 3 -12 -11
-16 -84 -18 l-88 -3 -15 38 c-49 121 -124 296 -181 423 -36 80 -71 161 -78
180 -7 19 -29 67 -47 105 -19 39 -40 84 -46 100 -24 60 -84 272 -106 372 -22
100 -36 138 -36 96 0 -38 28 -169 55 -257 15 -48 25 -90 22 -92 -6 -7 -149
262 -253 476 -120 248 -137 281 -129 245 13 -56 147 -335 257 -536 109 -197
138 -254 159 -309 9 -25 31 -76 49 -115 59 -128 142 -309 175 -385 18 -41 58
-133 89 -204 31 -71 56 -131 56 -133 0 -2 -34 -3 -76 -1 -56 2 -79 7 -85 18
-5 8 -48 96 -97 195 -116 234 -181 358 -293 551 -50 88 -105 184 -122 214 -16
30 -38 67 -49 82 -10 14 -18 28 -18 31 0 3 -45 81 -101 174 -56 92 -126 211
-156 263 -192 329 -325 530 -705 1063 -35 49 -128 185 -208 302 -80 117 -152
221 -160 230 -34 41 26 -4 76 -57z m811 -10 c-3 -7 -5 -2 -5 12 0 14 2 19 5
13 2 -7 2 -19 0 -25z m2534 -39 c-5 -13 -10 -19 -10 -12 -1 15 10 45 15 40 3
-2 0 -15 -5 -28z m-2491 -25 c0 -2 -9 -4 -20 -4 -11 0 -20 4 -20 9 0 5 9 7 20
4 11 -3 20 -7 20 -9z m50 -88 c0 -3 -4 -8 -10 -11 -5 -3 -10 -1 -10 4 0 6 5
11 10 11 6 0 10 -2 10 -4z m50 -21 c0 -16 -6 -25 -15 -25 -18 0 -18 5 -5 31
14 26 20 24 20 -6z m20 -51 c0 -8 -5 -12 -10 -9 -6 4 -8 11 -5 16 9 14 15 11
15 -7z m-20 -64 c0 -13 -11 -13 -30 0 -12 8 -11 10 8 10 12 0 22 -4 22 -10z
m2299 -99 c-7 -28 -16 -51 -20 -51 -3 0 1 24 10 54 20 68 28 65 10 -3z m-2159
-136 c0 -8 5 -14 11 -12 5 1 16 -15 23 -35 8 -21 11 -38 7 -38 -10 0 -62 100
-51 100 6 0 10 -7 10 -15z m135 -15 c3 -5 1 -10 -4 -10 -6 0 -11 5 -11 10 0 6
2 10 4 10 3 0 8 -4 11 -10z m833 -142 c20 -78 25 -115 17 -112 -19 8 -34 47
-28 76 3 14 -2 46 -11 72 -9 26 -16 59 -15 74 1 35 3 30 37 -110z m1139 95
c-3 -10 -5 -4 -5 12 0 17 2 24 5 18 2 -7 2 -21 0 -30z m-2027 -53 c7 -13 7
-20 1 -20 -6 0 -15 9 -21 20 -7 13 -7 20 -1 20 6 0 15 -9 21 -20z m461 -63
c-1 -12 -15 -9 -19 4 -3 6 1 10 8 8 6 -3 11 -8 11 -12z m-401 -23 c0 -2 -7 -4
-15 -4 -8 0 -15 4 -15 10 0 5 7 7 15 4 8 -4 15 -8 15 -10z m140 6 c0 -5 -5
-10 -11 -10 -5 0 -7 5 -4 10 3 6 8 10 11 10 2 0 4 -4 4 -10z m64 -5 c-4 -8 -8
-15 -10 -15 -2 0 -4 7 -4 15 0 8 4 15 10 15 5 0 7 -7 4 -15z m233 0 c0 -9 -10
-15 -25 -15 -14 0 -22 -3 -18 -7 4 -5 25 -8 47 -9 22 0 45 -6 52 -13 15 -15
-134 -14 -295 3 -105 11 -155 26 -87 26 19 0 40 5 47 12 9 9 12 8 12 -6 0 -16
7 -18 60 -14 38 3 60 0 61 -6 0 -6 3 -5 6 2 2 6 11 12 19 12 9 0 12 5 9 10 -4
7 3 8 22 4 37 -10 67 -7 71 6 5 15 19 12 19 -5z m2353 -4 c-13 -25 -28 -34
-60 -37 -14 -2 -43 -5 -65 -8 -109 -15 -237 -26 -410 -36 -104 -7 -216 -15
-247 -19 -50 -7 -58 -5 -58 8 0 35 14 38 175 40 211 2 383 18 560 50 55 10
104 19 108 20 4 0 3 -8 -3 -18z m-2760 -1 c0 -5 -2 -10 -4 -10 -3 0 -8 5 -11
10 -3 6 -1 10 4 10 6 0 11 -4 11 -10z m510 -4 c0 -8 8 -17 18 -19 13 -4 11 -5
-5 -6 -14 -1 -23 5 -23 14 0 8 -4 15 -10 15 -5 0 -10 -4 -10 -10 0 -5 -4 -10
-10 -10 -5 0 -10 7 -10 15 0 9 9 15 25 15 15 0 25 -6 25 -14z m263 -28 l17
-28 -42 1 c-30 2 -35 3 -15 6 25 4 40 23 17 23 -5 0 -7 7 -3 15 3 9 6 15 7 13
1 -2 10 -15 19 -30z m-83 6 c5 5 10 7 10 2 0 -19 -30 -31 -83 -35 -58 -3 -59
-3 -40 16 14 15 27 17 60 12 25 -3 47 -1 53 5z m2040 -30 c0 -8 -277 -470
-314 -524 -17 -25 -39 -61 -49 -80 -11 -19 -34 -57 -52 -85 -46 -71 -105 -183
-105 -200 0 -7 -14 -23 -30 -35 -17 -12 -28 -26 -25 -31 4 -5 1 -9 -4 -9 -6 0
-11 8 -11 18 -1 16 -1 16 -14 -1 -9 -11 -32 -20 -62 -23 -27 -3 -85 -10 -129
-15 -44 -5 -117 -9 -162 -9 -79 0 -83 1 -83 22 0 33 38 204 78 348 34 126 44
163 89 345 13 55 31 123 39 151 l15 51 82 8 c45 4 113 9 152 11 38 2 93 6 120
9 28 2 86 7 130 10 94 7 308 34 314 41 6 6 21 5 21 -2z m-2700 -33 c0 -5 12
-12 28 -14 26 -4 26 -4 -4 -6 -20 0 -34 5 -38 14 -3 8 -1 15 4 15 6 0 10 -4
10 -9z m253 -8 c-7 -2 -19 -2 -25 0 -7 3 -2 5 12 5 14 0 19 -2 13 -5z m87 -3
c0 -5 -9 -10 -19 -10 -11 0 -23 5 -26 10 -4 6 5 10 19 10 14 0 26 -4 26 -10z
m110 -6 c0 -2 -21 -4 -47 -3 -37 1 -42 3 -23 8 24 7 70 3 70 -5z m228 -10 c18
-18 20 -19 -93 5 -39 8 -39 9 18 10 42 1 63 -4 75 -15z m132 -5 c13 -24 4 -41
-10 -19 -5 8 -17 15 -27 16 -10 0 -31 2 -48 3 -30 3 -30 3 -5 11 47 15 79 11
90 -11z m-348 -3 c70 1 125 -2 123 -6 -5 -8 -142 -15 -230 -12 -72 3 -265 24
-265 29 0 3 55 1 123 -4 67 -4 179 -7 249 -7z m318 -39 c0 -13 5 -28 12 -35 9
-9 9 -12 0 -12 -7 0 -12 1 -12 3 0 1 -4 17 -9 35 -6 20 -6 32 0 32 5 0 9 -10
9 -23z m-687 -13 c-12 -8 -21 -9 -28 -3 -12 12 12 29 32 22 11 -4 10 -8 -4
-19z m87 6 c8 -5 13 -10 10 -10 -37 -6 -70 -6 -70 0 0 18 38 24 60 10z m513
-8 c-13 -2 -23 -8 -23 -14 0 -6 9 -8 20 -5 11 3 20 1 20 -4 0 -5 -13 -8 -29
-7 -16 1 -27 6 -25 10 9 14 -43 20 -140 15 -53 -2 -94 -2 -91 2 8 8 255 18
275 11 10 -3 8 -6 -7 -8z m144 -29 c6 -29 7 -52 2 -57 -5 -6 -9 -1 -9 12 0 12
1 24 3 26 1 2 -6 13 -16 24 -11 12 -16 26 -12 31 12 21 20 11 32 -36z m-510
15 c-8 -4 -27 -3 -43 1 -26 8 -25 9 13 8 25 -1 37 -4 30 -9z m70 6 c-3 -3 -12
-4 -19 -1 -8 3 -5 6 6 6 11 1 17 -2 13 -5z m-300 -31 c-3 -18 4 -35 25 -59 17
-19 25 -34 20 -34 -6 0 -26 21 -43 48 -18 26 -36 49 -41 50 -18 8 -7 20 18 20
22 0 25 -4 21 -25z m506 8 c-2 -6 6 -11 17 -11 11 0 20 -6 20 -14 0 -7 6 -19
14 -25 7 -6 16 -30 20 -52 8 -47 -7 -73 -36 -63 -32 10 -78 -5 -78 -26 0 -14
-12 -21 -52 -29 -35 -8 -55 -8 -62 -1 -7 7 -3 10 13 10 12 0 19 4 16 10 -9 14
-72 12 -79 -2 -4 -7 -4 -3 -2 10 3 14 -1 22 -10 22 -7 0 -19 10 -25 22 -8 16
-14 19 -17 10 -3 -9 -8 -6 -16 9 -6 13 -22 26 -36 30 l-25 7 28 1 c23 1 27 5
27 31 0 35 27 46 90 37 25 -3 46 0 59 9 11 8 43 16 70 17 27 1 47 6 44 11 -3
5 0 6 8 4 8 -3 13 -11 12 -17z m-293 -1 c11 -7 3 -10 -28 -10 -26 0 -41 4 -37
10 8 13 45 13 65 0z m451 -48 c11 -26 18 -55 15 -65 -2 -10 2 -21 10 -24 8 -3
13 -12 10 -19 -3 -8 -1 -14 4 -14 6 0 10 -13 10 -28 0 -16 3 -32 7 -35 3 -4 8
-22 10 -41 2 -19 10 -47 18 -63 8 -15 15 -37 15 -48 -1 -19 -1 -19 -11 -2 -6
9 -12 26 -14 36 -2 11 -10 32 -18 48 -9 16 -15 36 -15 43 2 34 -3 51 -13 45
-6 -4 -8 -13 -5 -20 3 -8 0 -15 -6 -17 -8 -3 -8 -13 -1 -35 6 -17 8 -45 3 -64
l-7 -34 -8 28 c-4 15 -11 27 -16 27 -5 0 -9 6 -9 14 0 8 -5 18 -11 21 -7 5 -8
-7 -3 -41 l7 -48 -33 31 c-32 30 -32 30 -16 61 20 39 20 40 -5 44 -20 3 -20 4
7 33 l28 30 7 -30 c7 -30 11 -27 13 10 1 11 11 24 22 29 l22 10 -24 42 c-13
23 -23 55 -22 70 1 16 -2 38 -7 48 -6 14 -5 17 4 12 7 -5 22 -29 32 -54z
m-388 41 c-7 -2 -19 -2 -25 0 -7 3 -2 5 12 5 14 0 19 -2 13 -5z m-220 -18 c-3
-9 -8 -14 -10 -11 -3 3 -2 9 2 15 9 16 15 13 8 -4z m567 -6 c0 -11 -4 -17 -10
-14 -5 3 -10 13 -10 21 0 8 5 14 10 14 6 0 10 -9 10 -21z m137 -51 c-3 -8 -6
-5 -6 6 -1 11 2 17 5 13 3 -3 4 -12 1 -19z m-22 -17 c0 -16 -3 -27 -7 -24 -13
7 -7 53 6 53 1 0 1 -13 1 -29z m-662 -9 c-21 -22 -26 -21 -17 2 3 9 12 16 20
16 11 0 10 -4 -3 -18z m544 12 c-3 -3 -12 -4 -19 -1 -8 3 -5 6 6 6 11 1 17 -2
13 -5z m153 -26 c0 -13 7 -45 15 -72 8 -28 12 -59 8 -70 -8 -26 -5 -76 6 -90
13 -18 21 -46 13 -46 -5 0 -18 29 -30 64 -21 61 -29 102 -12 61 5 -14 7 -6 6
28 -1 40 -3 45 -13 30 -12 -15 -13 -15 -13 4 0 12 -3 29 -7 39 -5 13 -3 15 7
9 10 -6 12 1 8 29 -2 20 0 36 4 36 4 0 8 -10 8 -22z m-686 -34 c4 -11 12 -13
28 -8 20 6 21 5 9 -10 -7 -9 -16 -16 -20 -16 -10 1 -43 50 -33 50 6 0 13 -7
16 -16z m541 -4 c3 -5 -1 -10 -9 -10 -9 0 -16 5 -16 10 0 6 4 10 9 10 6 0 13
-4 16 -10z m-365 -30 c0 -11 -4 -20 -10 -20 -5 0 -10 9 -10 20 0 11 5 20 10
20 6 0 10 -9 10 -20z m280 0 c0 -11 -2 -20 -3 -20 -2 0 -12 9 -22 20 -18 19
-17 20 3 20 15 0 22 -6 22 -20z m277 -132 c-3 -8 -6 -5 -6 6 -1 11 2 17 5 13
3 -3 4 -12 1 -19z m-87 -73 c0 -8 -2 -15 -4 -15 -2 0 -6 7 -10 15 -3 8 -1 15
4 15 6 0 10 -7 10 -15z m117 -27 c-3 -8 -6 -5 -6 6 -1 11 2 17 5 13 3 -3 4
-12 1 -19z m-20 -40 c-3 -7 -5 -2 -5 12 0 14 2 19 5 13 2 -7 2 -19 0 -25z
m-80 -344 c-3 -3 -12 -4 -19 -1 -8 3 -5 6 6 6 11 1 17 -2 13 -5z m769 -29 c-3
-10 -18 -14 -43 -14 -31 2 -33 3 -10 6 15 3 33 13 40 24 13 20 23 8 13 -16z
m585 -90 c-102 -180 -302 -801 -350 -1082 l-18 -108 -238 0 c-148 0 -243 4
-252 10 -12 9 -12 23 1 100 9 50 30 173 46 275 33 201 83 470 105 565 8 33 17
77 20 98 7 43 36 101 66 132 16 17 38 20 152 26 72 3 133 5 135 4 1 -1 -18
-60 -42 -131 -91 -261 -262 -832 -252 -841 4 -4 16 33 116 367 47 157 187 592
195 607 7 13 327 46 344 36 2 -1 -11 -27 -28 -58z m-1336 14 c180 -18 203 -23
233 -53 17 -15 35 -24 44 -21 17 7 29 -90 48 -395 13 -198 39 -530 50 -640 5
-54 5 -87 -2 -91 -5 -3 -75 -6 -155 -5 l-147 1 -7 25 c-33 105 -97 321 -134
450 -25 85 -63 209 -84 275 -46 141 -110 371 -115 412 -3 15 -7 35 -10 43 -5
13 7 15 86 12 51 -1 138 -7 193 -13z m380 -19 c-11 -5 -31 -8 -45 -8 l-25 0
25 8 c14 4 34 8 45 8 l20 1 -20 -9z m225 -68 c0 -10 -18 -123 -40 -252 -43
-253 -105 -656 -120 -784 -10 -82 -15 -96 -29 -80 -10 11 -30 333 -36 589 -2
105 -7 224 -10 265 -2 41 -7 117 -10 168 l-6 92 58 1 c32 1 83 4 113 9 30 4
61 8 68 9 6 0 12 -7 12 -17z m-459 -1163 c6 -10 10 -10 23 0 12 10 148 12 663
9 l648 -3 31 -22 c37 -26 73 -98 57 -114 -8 -8 -21 -8 -47 1 -26 8 -237 13
-743 16 -390 2 -739 4 -778 4 -48 0 -65 3 -55 9 8 5 18 7 22 4 5 -2 16 1 25 9
12 9 15 9 9 1 -4 -8 -2 -13 8 -13 8 0 16 5 18 12 3 7 11 9 24 3 10 -4 38 -10
60 -12 36 -4 42 -1 40 14 -1 14 5 17 26 15 16 -1 37 2 47 8 14 7 21 6 24 -3 4
-9 6 -9 6 1 1 7 -8 16 -18 20 -11 4 -20 11 -20 17 0 5 -5 11 -12 14 -8 2 -10
-3 -6 -18 6 -25 -9 -27 -39 -6 -26 18 -35 10 -28 -24 6 -26 6 -26 -13 -5 -18
20 -28 21 -110 9 -27 -4 -43 -2 -43 5 0 5 11 10 25 10 14 0 25 5 25 10 0 14
-20 12 -52 -4 -16 -8 -28 -11 -28 -7 0 11 -56 19 -71 10 -6 -3 -19 1 -28 10
-15 15 -13 16 29 21 112 12 273 12 281 -1z m-216 -69 c-3 -5 -16 -11 -28 -11
-17 -1 -18 -2 -4 -6 32 -8 17 -23 -23 -23 -22 0 -40 4 -40 9 0 5 9 7 20 4 15
-4 20 0 20 16 0 17 6 21 31 21 17 0 28 -4 24 -10z m1470 -140 c-28 -12 -65
-12 -65 0 0 6 19 10 43 9 32 0 37 -2 22 -9z m-505 -11 c0 -8 -139 -31 -150
-24 -5 3 -11 1 -15 -5 -4 -6 -10 -8 -14 -5 -15 9 -101 12 -95 4 3 -5 0 -9 -5
-9 -21 0 -11 30 12 35 52 11 267 15 267 4z m-717 -16 c-7 -2 -19 -2 -25 0 -7
3 -2 5 12 5 14 0 19 -2 13 -5z m406 -16 c-17 -16 -69 -28 -69 -16 0 5 8 9 18
9 9 0 26 7 36 15 23 18 34 12 15 -8z m870 -4 c-13 -33 -19 -118 -19 -265 l1
-108 -28 -1 -28 -1 25 -7 c29 -8 28 1 16 -211 -4 -74 -12 -151 -17 -170 -5
-19 -9 -57 -9 -85 -1 -118 -69 -296 -137 -355 -32 -28 -71 -42 -58 -20 8 12
-7 13 -21 1 -5 -4 -52 -4 -104 1 -52 4 -104 9 -115 9 -60 2 -60 2 -63 94 l-4
85 94 2 c227 4 290 6 295 12 4 3 -20 6 -53 7 -118 2 -230 8 -281 14 l-53 6 0
105 0 104 185 -1 c102 0 188 -5 191 -10 3 -5 10 -6 16 -3 6 4 27 7 46 6 70 -3
22 9 -59 14 -46 3 -100 7 -119 9 -19 2 -75 7 -125 10 -146 10 -135 2 -135 101
l0 85 198 -1 c241 -2 257 -1 250 6 -7 6 -75 11 -291 20 -134 5 -157 8 -153 21
3 8 6 46 6 85 l0 71 217 -7 c141 -4 214 -3 208 3 -6 6 -106 13 -223 17 -178 6
-212 9 -207 21 3 8 5 46 5 85 l0 70 208 -2 c228 -3 238 -3 229 6 -5 6 -104 9
-335 12 -113 2 -113 2 -106 25 4 12 8 40 9 61 1 29 6 41 21 46 10 4 22 6 27 3
4 -2 7 1 7 7 0 6 -8 9 -17 6 -10 -3 -25 -1 -33 4 -29 18 24 25 190 24 203 0
216 -3 213 -38 -2 -35 14 -24 22 14 5 25 11 30 36 30 16 0 29 -5 29 -12 0 -7
5 -5 11 5 5 9 19 17 29 17 17 0 18 -3 9 -27z m-1036 10 c51 -7 47 -23 -6 -23
-79 0 -197 13 -197 21 0 9 141 11 203 2z m-295 -20 c-10 -2 -26 -2 -35 0 -10
3 -2 5 17 5 19 0 27 -2 18 -5z m367 -3 c3 -5 2 -10 -4 -10 -5 0 -13 5 -16 10
-3 6 -2 10 4 10 5 0 13 -4 16 -10z m405 0 c0 -5 -6 -10 -12 -10 -8 0 -9 -3 -3
-8 6 -4 9 -34 7 -69 l-4 -63 -209 0 c-160 0 -209 3 -209 13 0 8 -3 8 -9 -2 -7
-11 -36 -15 -123 -15 l-113 0 -3 32 -3 32 124 -7 c88 -4 126 -3 131 6 5 8 -13
11 -62 11 -124 0 -192 11 -192 30 0 15 15 18 103 24 56 3 176 6 267 6 165 0
195 3 260 19 48 12 50 12 50 1z m-870 -28 c0 -4 30 -5 68 -2 37 4 69 3 70 -2
2 -4 10 -8 17 -8 7 0 15 -7 19 -15 5 -13 -16 -15 -152 -14 -145 1 -155 2 -127
15 l30 15 -32 -4 c-18 -2 -33 0 -33 4 0 8 29 13 98 16 23 1 42 -2 42 -5z m174
-97 l0 -30 -146 1 c-126 1 -149 4 -164 19 -13 13 -19 14 -22 5 -3 -7 2 -17 9
-22 10 -7 3 -8 -20 -4 -18 3 -40 6 -47 6 -8 0 -14 4 -14 9 0 5 9 7 20 4 15 -4
20 0 20 15 0 20 7 22 98 25 53 2 135 3 182 3 l85 -1 -1 -30z m676 -129 l0 -83
-112 -6 c-62 -4 -159 -7 -215 -7 l-102 0 3 80 c1 44 -2 80 -6 80 -4 0 -8 -36
-8 -80 l0 -80 -105 0 -105 0 0 88 0 87 325 2 325 2 0 -83z m-670 -10 l0 -85
-27 3 c-16 2 -99 4 -185 5 l-158 1 0 75 c0 42 4 75 10 75 5 0 7 -7 4 -15 -6
-16 17 -45 36 -45 6 0 9 -4 6 -9 -8 -12 3 -41 15 -41 5 0 9 8 9 18 1 13 4 11
15 -8 l14 -25 1 26 c0 15 7 32 15 39 13 11 15 8 15 -19 0 -25 4 -31 20 -31 17
0 19 3 11 18 -6 10 -7 28 -4 40 5 20 1 22 -33 23 -35 1 -36 2 -14 10 23 7 22
8 -10 7 -19 0 -44 0 -55 2 -55 6 42 17 173 19 l142 2 0 -85z m666 -263 c-2 -2
-97 -6 -211 -9 l-208 -4 7 38 c3 20 6 53 6 72 0 27 4 36 18 37 9 1 73 4 142 8
69 3 152 9 185 13 l60 7 3 -79 c2 -43 1 -81 -2 -83z m-665 115 c0 -24 2 -54 4
-68 6 -45 -4 -62 -33 -56 -15 3 -94 8 -177 11 -168 5 -164 3 -146 80 l9 40 1
-41 c1 -25 6 -41 14 -41 6 0 22 -3 35 -7 13 -5 22 -3 22 3 0 6 7 11 15 11 8 0
14 6 13 13 -2 8 11 12 39 12 22 0 45 3 49 8 4 4 26 7 48 8 37 1 38 2 16 10
-19 7 -15 8 20 4 l45 -4 -40 15 c-24 10 -92 18 -170 22 -154 8 -115 16 93 20
l142 2 1 -42z m206 22 l33 0 0 -68 c0 -40 -5 -73 -12 -80 -8 -8 -47 -12 -110
-12 -97 0 -106 3 -98 35 1 6 2 39 1 74 l-1 64 76 -7 c43 -3 92 -6 111 -6z
m-511 -87 c-11 -11 -17 4 -9 23 7 18 8 18 11 1 2 -10 1 -21 -2 -24z m-18 -95
c-6 -18 -25 -21 -25 -3 0 8 7 15 15 15 7 0 12 -5 10 -12z m32 2 c0 -5 -4 -10
-10 -10 -5 0 -10 5 -10 10 0 6 5 10 10 10 6 0 10 -4 10 -10z m236 -6 c48 -5
52 -7 58 -36 3 -17 6 -52 6 -79 0 -38 -4 -49 -16 -49 -9 0 -12 5 -8 13 6 9 4
9 -7 1 -8 -5 -61 -11 -119 -12 -58 -1 -117 -5 -132 -8 -16 -3 -28 -2 -28 3 0
13 49 32 56 22 9 -15 27 -10 20 6 -5 14 6 20 29 15 6 -1 6 2 2 7 -5 4 -16 8
-25 8 -9 0 -17 7 -17 15 0 8 8 14 18 13 12 0 16 4 13 13 -3 8 7 19 26 29 38
19 72 20 62 3 -6 -10 -4 -10 7 0 7 6 24 12 39 13 21 1 19 2 -10 9 -54 13 -180
11 -180 -3 0 -7 -4 -6 -9 3 -6 8 -8 17 -5 22 5 7 108 3 220 -8z m724 -74 l0
-90 -57 -1 c-32 -1 -179 -2 -327 -4 l-269 -2 6 59 c3 32 11 66 18 74 10 12 10
15 -1 12 -7 -2 -15 3 -17 10 -4 9 19 12 89 13 51 1 116 2 143 3 l50 1 6 -50 6
-50 1 52 2 52 58 3 c31 2 110 4 175 6 l117 3 0 -91z m-987 -80 c4 -15 0 -20
-14 -20 -20 0 -23 8 -13 34 7 20 20 13 27 -14z m985 -154 l-3 -98 -163 -1
c-90 -1 -166 2 -169 6 -5 8 -215 1 -280 -9 l-33 -5 0 103 0 104 283 -3 c155
-1 298 2 317 6 19 4 39 5 43 1 4 -4 6 -51 5 -104z m-668 -1 l0 -106 -111 2
-111 1 7 37 c9 47 11 50 34 44 11 -3 27 -1 37 5 15 9 14 11 -12 25 l-29 16 40
1 c22 0 57 4 77 9 26 6 39 5 42 -3 2 -6 5 -3 5 7 1 9 -6 17 -15 17 -10 0 -14
6 -11 14 4 11 -7 14 -50 15 -31 0 -61 5 -67 11 -7 7 17 10 77 10 l87 0 0 -105z
m-300 91 c0 -3 -4 -8 -10 -11 -5 -3 -10 -1 -10 4 0 6 5 11 10 11 6 0 10 -2 10
-4z m126 -23 c-11 -11 -48 -14 -41 -3 3 5 16 10 27 10 12 0 18 -3 14 -7z m107
-10 c-7 -2 -19 -2 -25 0 -7 3 -2 5 12 5 14 0 19 -2 13 -5z m-248 -90 c13 18
45 23 45 7 0 -5 -8 -10 -17 -11 -15 0 -15 -2 2 -9 16 -7 13 -9 -17 -9 -32 -1
-35 -3 -30 -23 3 -14 2 -19 -6 -14 -8 4 -12 34 -11 79 l1 72 10 -55 c9 -47 12
-52 23 -37z m120 48 c-3 -6 -11 -8 -17 -5 -6 4 -5 9 3 15 16 10 23 4 14 -10z
m-75 -85 c0 -3 -4 -8 -10 -11 -5 -3 -10 -1 -10 4 0 6 5 11 10 11 6 0 10 -2 10
-4z m940 -134 c0 -83 -6 -105 -31 -120 -17 -11 -23 -9 -45 13 -14 14 -30 22
-36 19 -6 -4 -17 1 -24 10 -12 17 -14 17 -36 2 -12 -9 -29 -16 -38 -16 -12 1
-12 3 3 11 21 12 22 29 2 29 -18 0 -20 20 -2 21 8 0 8 2 1 5 -7 3 -9 15 -6 27
5 21 5 21 -12 5 -21 -22 -35 -22 -60 -3 -11 8 -34 16 -50 16 -31 2 -31 2 4 8
19 3 37 3 38 -1 6 -14 50 -8 56 7 5 14 -8 15 -94 14 -55 -1 -100 -5 -100 -9 0
-3 6 -12 13 -19 10 -11 9 -14 -1 -18 -10 -4 -9 -8 4 -17 18 -14 12 -36 -11
-36 -7 0 -16 7 -19 16 -3 8 -10 13 -15 9 -5 -3 -12 -1 -16 5 -3 5 -1 10 5 10
6 0 8 5 5 10 -4 6 -11 8 -16 5 -5 -4 -9 -1 -9 5 0 6 10 10 22 8 11 -2 23 3 26
10 2 7 -2 13 -9 11 -8 -1 -47 -1 -88 0 -129 2 -67 15 92 19 84 2 153 5 155 6
1 2 67 3 147 4 l145 1 0 -67z m-792 41 c-10 -2 -28 -2 -40 0 -13 2 -5 4 17 4
22 1 32 -1 23 -4z m80 0 c-10 -2 -26 -2 -35 0 -10 3 -2 5 17 5 19 0 27 -2 18
-5z m73 -4 c-16 -6 -28 -6 -35 1 -7 7 1 10 25 9 32 0 33 -1 10 -10z m-31 -24
c0 -2 -7 -5 -15 -9 -9 -3 -15 0 -15 9 0 9 6 12 15 9 8 -4 15 -7 15 -9z m109
-1 c17 -5 22 -4 17 4 -9 14 13 15 34 2 12 -8 11 -10 -5 -10 -12 0 -26 -5 -32
-11 -8 -8 -18 -6 -37 6 -15 10 -30 15 -34 11 -3 -4 0 -11 8 -16 11 -7 6 -10
-17 -10 -32 0 -32 0 -15 21 17 20 26 20 81 3z m-169 -4 c0 -5 -4 -10 -10 -10
-5 0 -10 5 -10 10 0 6 5 10 10 10 6 0 10 -4 10 -10z m30 -28 c3 -2 -14 -3 -37
0 -38 3 -43 1 -44 -17 0 -11 -3 -14 -6 -7 -11 28 5 41 44 35 21 -3 40 -8 43
-11z m350 14 c0 -9 -30 -14 -35 -6 -4 6 3 10 14 10 12 0 21 -2 21 -4z m30 -16
c0 -5 -4 -10 -10 -10 -5 0 -10 5 -10 10 0 6 5 10 10 10 6 0 10 -4 10 -10z m40
6 c0 -3 -4 -8 -10 -11 -5 -3 -10 -1 -10 4 0 6 5 11 10 11 6 0 10 -2 10 -4z
m-660 -16 c0 -5 -2 -10 -4 -10 -3 0 -8 5 -11 10 -3 6 -1 10 4 10 6 0 11 -4 11
-10z m160 -60 c0 -5 -7 -7 -15 -4 -8 4 -15 8 -15 10 0 2 7 4 15 4 8 0 15 -4
15 -10z m93 -7 c-7 -2 -19 -2 -25 0 -7 3 -2 5 12 5 14 0 19 -2 13 -5z m50 0
c-7 -2 -19 -2 -25 0 -7 3 -2 5 12 5 14 0 19 -2 13 -5z m90 0 c-13 -2 -35 -2
-50 0 -16 2 -5 4 22 4 28 0 40 -2 28 -4z m457 -7 c0 -3 -4 -8 -10 -11 -5 -3
-10 -1 -10 4 0 6 5 11 10 11 6 0 10 -2 10 -4z"/>
<path d="M5480 12910 c0 -5 5 -10 10 -10 6 0 10 5 10 10 0 6 -4 10 -10 10 -5
0 -10 -4 -10 -10z"/>
<path d="M7358 11973 c7 -3 16 -2 19 1 4 3 -2 6 -13 5 -11 0 -14 -3 -6 -6z"/>
<path d="M7428 11973 c7 -3 16 -2 19 1 4 3 -2 6 -13 5 -11 0 -14 -3 -6 -6z"/>
<path d="M7488 11973 c17 -2 47 -2 65 0 17 2 3 4 -33 4 -36 0 -50 -2 -32 -4z"/>
<path d="M7623 11973 c15 -2 39 -2 55 0 15 2 2 4 -28 4 -30 0 -43 -2 -27 -4z"/>
<path d="M5412 11879 c-13 -16 -19 -29 -13 -29 5 0 13 5 16 10 4 6 11 8 16 5
5 -4 9 5 9 19 0 32 0 32 -28 -5z"/>
<path d="M5520 11889 c-13 -24 -4 -41 10 -19 10 16 13 40 5 40 -2 0 -9 -9 -15
-21z"/>
<path d="M5322 11852 c-12 -28 -22 -59 -22 -69 1 -10 12 8 26 40 14 33 23 64
21 70 -1 5 -13 -13 -25 -41z"/>
<path d="M5187 11843 c-34 -55 -59 -113 -48 -113 12 0 31 23 31 40 0 8 12 32
26 53 14 21 24 44 22 51 -2 8 -16 -6 -31 -31z"/>
<path d="M8705 11860 c10 -11 20 -20 23 -20 3 0 -3 9 -13 20 -10 11 -20 20
-23 20 -3 0 3 -9 13 -20z"/>
<path d="M5243 11830 c-13 -21 -23 -49 -22 -62 0 -17 7 -8 25 30 30 65 28 87
-3 32z"/>
<path d="M5940 11850 c0 -5 5 -10 11 -10 5 0 7 5 4 10 -3 6 -8 10 -11 10 -2 0
-4 -4 -4 -10z"/>
<path d="M5496 11834 c-5 -14 -4 -15 9 -4 17 14 19 20 6 20 -5 0 -12 -7 -15
-16z"/>
<path d="M5135 11832 c-5 -4 -15 -20 -21 -37 -6 -16 -15 -39 -20 -50 -7 -18
-6 -19 10 -6 14 12 56 85 56 98 0 6 -15 3 -25 -5z"/>
<path d="M5061 11779 c-7 -23 -15 -48 -18 -57 -4 -10 -2 -13 6 -8 13 8 24 32
35 79 10 43 -10 31 -23 -14z"/>
<path d="M8750 11813 c1 -9 70 -90 70 -81 0 4 -16 25 -35 48 -19 23 -35 38
-35 33z"/>
<path d="M4963 11788 c-6 -7 -14 -23 -17 -35 -4 -13 -13 -23 -21 -23 -16 0
-24 -24 -22 -60 4 -51 31 -26 54 49 23 74 25 93 6 69z"/>
<path d="M5004 11765 c-7 -14 -8 -25 -2 -27 6 -2 5 -15 -2 -33 -10 -28 -10
-29 5 -14 18 18 33 99 19 99 -5 0 -14 -11 -20 -25z"/>
<path d="M8667 11769 c7 -7 15 -10 18 -7 3 3 -2 9 -12 12 -14 6 -15 5 -6 -5z"/>
<path d="M8837 11685 c9 -19 18 -33 21 -31 4 5 -26 66 -33 66 -3 0 3 -16 12
-35z"/>
<path d="M4955 11680 c-3 -5 -1 -10 4 -10 6 0 11 5 11 10 0 6 -2 10 -4 10 -3
0 -8 -4 -11 -10z"/>
<path d="M8866 11625 c3 -11 19 -58 34 -105 16 -47 29 -80 29 -75 2 19 -37
142 -53 171 -10 16 -14 20 -10 9z"/>
<path d="M8810 11565 c0 -5 5 -17 10 -25 5 -8 10 -10 10 -5 0 6 -5 17 -10 25
-5 8 -10 11 -10 5z"/>
<path d="M6345 11440 c-4 -6 -11 -70 -16 -143 -5 -73 -14 -175 -19 -227 -13
-123 -13 -433 0 -446 6 -6 6 -23 -1 -47 -6 -21 -8 -44 -5 -50 2 -7 5 -3 5 8 1
11 8 33 16 49 18 33 20 60 4 50 -8 -5 -8 -1 0 14 7 14 8 23 1 27 -5 3 -10 17
-10 31 0 21 3 24 23 19 16 -5 18 -4 8 3 -11 8 -14 41 -15 149 0 127 11 465 18
541 3 34 1 39 -9 22z"/>
<path d="M6968 11403 c7 -3 16 -2 19 1 4 3 -2 6 -13 5 -11 0 -14 -3 -6 -6z"/>
<path d="M7715 11290 c-3 -5 -1 -10 4 -10 6 0 11 5 11 10 0 6 -2 10 -4 10 -3
0 -8 -4 -11 -10z"/>
<path d="M8102 11275 c0 -16 2 -22 5 -12 2 9 2 23 0 30 -3 6 -5 -1 -5 -18z"/>
<path d="M8943 11245 c0 -27 2 -38 4 -22 2 15 2 37 0 50 -2 12 -4 0 -4 -28z"/>
<path d="M7415 11270 c3 -5 10 -10 16 -10 5 0 9 5 9 10 0 6 -7 10 -16 10 -8 0
-12 -4 -9 -10z"/>
<path d="M8290 11276 c0 -2 7 -7 16 -10 8 -3 12 -2 9 4 -6 10 -25 14 -25 6z"/>
<path d="M8297 11229 c-4 -16 -3 -18 9 -8 16 13 19 29 5 29 -5 0 -11 -9 -14
-21z"/>
<path d="M7981 11224 c0 -11 3 -14 6 -6 3 7 2 16 -1 19 -3 4 -6 -2 -5 -13z"/>
<path d="M8941 11174 c0 -11 3 -14 6 -6 3 7 2 16 -1 19 -3 4 -6 -2 -5 -13z"/>
<path d="M8851 11134 c0 -11 3 -14 6 -6 3 7 2 16 -1 19 -3 4 -6 -2 -5 -13z"/>
<path d="M8933 11115 c0 -22 2 -30 4 -17 2 12 2 30 0 40 -3 9 -5 -1 -4 -23z"/>
<path d="M6964 11128 c-5 -7 44 -3 52 5 3 3 -7 4 -21 3 -15 0 -29 -4 -31 -8z"/>
<path d="M7413 11133 c9 -2 23 -2 30 0 6 3 -1 5 -18 5 -16 0 -22 -2 -12 -5z"/>
<path d="M8238 11123 c7 -3 16 -2 19 1 4 3 -2 6 -13 5 -11 0 -14 -3 -6 -6z"/>
<path d="M8916 11030 c-14 -91 -75 -231 -124 -286 -15 -17 -55 -62 -89 -100
-93 -105 -133 -162 -133 -189 0 -34 13 -31 32 8 18 37 98 137 174 217 61 65
124 160 124 190 0 11 3 19 8 19 19 -3 23 2 12 16 -11 13 -11 29 0 85 7 39 11
72 8 75 -3 3 -8 -12 -12 -35z"/>
<path d="M6370 10855 c-9 -33 -5 -65 7 -61 10 4 13 -5 11 -32 -3 -61 2 -136 9
-129 9 10 4 158 -6 171 -5 6 -11 22 -14 36 -2 14 -5 21 -7 15z"/>
<path d="M8342 10610 c0 -14 2 -19 5 -12 2 6 2 18 0 25 -3 6 -5 1 -5 -13z"/>
<path d="M6318 10331 c8 -4 13 -17 12 -27 -1 -11 -1 -30 0 -44 2 -19 4 -15 10
15 9 47 4 65 -19 65 -12 0 -13 -2 -3 -9z"/>
<path d="M7798 10313 c6 -2 18 -2 25 0 6 3 1 5 -13 5 -14 0 -19 -2 -12 -5z"/>
<path d="M7945 10300 c-3 -5 -1 -10 4 -10 6 0 11 5 11 10 0 6 -2 10 -4 10 -3
0 -8 -4 -11 -10z"/>
<path d="M7370 10270 c0 -5 7 -10 16 -10 8 0 12 5 9 10 -3 6 -10 10 -16 10 -5
0 -9 -4 -9 -10z"/>
<path d="M7338 10253 c7 -3 16 -2 19 1 4 3 -2 6 -13 5 -11 0 -14 -3 -6 -6z"/>
<path d="M7095 10210 c-10 -11 -23 -20 -29 -20 -7 0 -12 -9 -13 -20 -1 -16 2
-20 18 -15 13 4 19 2 19 -9 0 -20 16 -21 24 -1 3 8 1 15 -5 15 -6 0 -7 5 -3
12 4 7 3 8 -4 4 -18 -11 -14 15 5 36 9 10 14 18 11 18 -3 0 -13 -9 -23 -20z"/>
<path d="M7288 10223 c7 -3 16 -2 19 1 4 3 -2 6 -13 5 -11 0 -14 -3 -6 -6z"/>
<path d="M6335 10115 c2 -35 7 -69 10 -76 4 -6 1 -15 -6 -20 -9 -6 -10 -9 -2
-9 19 0 44 31 39 49 -2 9 -10 40 -17 69 -7 28 -16 52 -20 52 -5 0 -6 -29 -4
-65z"/>
<path d="M6956 10151 c-4 -5 3 -7 14 -4 23 6 26 13 6 13 -8 0 -17 -4 -20 -9z"/>
<path d="M6955 10120 c-8 -12 42 -12 70 0 16 7 11 9 -22 9 -23 1 -45 -3 -48
-9z"/>
<path d="M6870 10095 c-11 -13 -10 -14 4 -9 9 3 16 10 16 15 0 13 -6 11 -20
-6z"/>
<path d="M7195 10079 c-4 -6 -5 -12 -2 -15 2 -3 7 2 10 11 7 17 1 20 -8 4z"/>
<path d="M7038 10073 c7 -3 16 -2 19 1 4 3 -2 6 -13 5 -11 0 -14 -3 -6 -6z"/>
<path d="M7085 10070 c-3 -5 -2 -10 4 -10 5 0 13 5 16 10 3 6 2 10 -4 10 -5 0
-13 -4 -16 -10z"/>
<path d="M6995 10059 c-11 -17 1 -21 15 -4 8 9 8 15 2 15 -6 0 -14 -5 -17 -11z"/>
<path d="M7403 10059 c-12 -10 -83 -19 -83 -9 0 4 -9 6 -20 3 -64 -17 29 -22
468 -26 500 -4 537 -7 611 -46 12 -7 25 -10 28 -8 6 6 -58 42 -69 39 -4 -1
-27 5 -52 13 -24 8 -74 17 -112 19 -38 2 -70 9 -72 15 -5 14 -82 15 -82 1 0
-14 -157 -13 -166 1 -4 8 -9 7 -15 -2 -6 -10 -13 -10 -32 -2 -17 8 -38 8 -67
2 -24 -6 -50 -7 -59 -4 -9 4 -52 8 -96 10 -48 1 -72 -1 -60 -6 17 -7 17 -8 -7
-8 -16 -1 -28 3 -28 7 0 10 -77 11 -87 1z"/>
<path d="M7873 10063 c9 -2 25 -2 35 0 9 3 1 5 -18 5 -19 0 -27 -2 -17 -5z"/>
<path d="M7978 10063 c7 -3 16 -2 19 1 4 3 -2 6 -13 5 -11 0 -14 -3 -6 -6z"/>
<path d="M8427 9959 c7 -7 15 -10 18 -7 3 3 -2 9 -12 12 -14 6 -15 5 -6 -5z"/>
<path d="M8477 9929 c7 -7 15 -10 18 -7 3 3 -2 9 -12 12 -14 6 -15 5 -6 -5z"/>
<path d="M7687 9918 c-14 -8 -11 -11 30 -32 39 -20 43 -20 43 -1 0 8 9 15 20
15 11 0 20 4 20 9 0 11 -97 19 -113 9z"/>
<path d="M8075 9920 c3 -5 8 -10 11 -10 2 0 4 5 4 10 0 6 -5 10 -11 10 -5 0
-7 -4 -4 -10z"/>
<path d="M8120 9919 c0 -5 6 -9 14 -9 8 0 22 -3 32 -7 11 -4 15 -2 12 7 -5 15
-58 23 -58 9z"/>
<path d="M7908 9913 c17 -2 47 -2 65 0 17 2 3 4 -33 4 -36 0 -50 -2 -32 -4z"/>
<path d="M8515 9910 c3 -5 8 -10 11 -10 2 0 4 5 4 10 0 6 -5 10 -11 10 -5 0
-7 -4 -4 -10z"/>
<path d="M8575 9867 c22 -18 61 -52 88 -76 26 -24 47 -40 47 -34 0 18 -146
144 -167 143 -4 -1 10 -15 32 -33z"/>
<path d="M8250 9855 c0 -8 5 -15 10 -15 6 0 10 7 10 15 0 8 -4 15 -10 15 -5 0
-10 -7 -10 -15z"/>
<path d="M6336 9281 c-4 -7 -5 -15 -2 -18 9 -9 19 4 14 18 -4 11 -6 11 -12 0z"/>
<path d="M6320 9184 c0 -14 4 -23 9 -19 11 6 10 45 -1 45 -4 0 -8 -12 -8 -26z"/>
<path d="M6248 8533 c6 -2 18 -2 25 0 6 3 1 5 -13 5 -14 0 -19 -2 -12 -5z"/>
<path d="M5898 8499 c-211 -22 -238 -30 -79 -23 68 3 134 10 148 15 13 5 45
10 71 10 26 1 61 5 77 9 28 7 27 8 -10 7 -22 -1 -115 -9 -207 -18z"/>
<path d="M8550 8045 c0 -5 5 -17 10 -25 5 -8 10 -10 10 -5 0 6 -5 17 -10 25
-5 8 -10 11 -10 5z"/>
<path d="M5400 7325 c0 -8 9 -13 20 -12 11 1 20 4 20 8 0 4 -9 9 -20 12 -13 3
-20 0 -20 -8z"/>
<path d="M5431 7268 c13 -24 28 -38 43 -38 5 0 0 10 -12 23 -12 13 -19 27 -15
30 3 4 -1 7 -11 7 -14 0 -15 -3 -5 -22z"/>
<path d="M5487 7178 c7 -37 13 -49 13 -25 0 8 6 17 14 19 10 2 7 8 -10 21
l-24 18 7 -33z"/>
<path d="M7060 5980 c0 -5 5 -10 11 -10 5 0 7 5 4 10 -3 6 -8 10 -11 10 -2 0
-4 -4 -4 -10z"/>
<path d="M7070 5940 c0 -5 5 -10 10 -10 6 0 10 5 10 10 0 6 -4 10 -10 10 -5 0
-10 -4 -10 -10z"/>
<path d="M7081 5904 c0 -11 3 -14 6 -6 3 7 2 16 -1 19 -3 4 -6 -2 -5 -13z"/>
<path d="M6377 5880 c-3 -13 0 -20 9 -20 8 0 14 9 14 20 0 11 -4 20 -9 20 -5
0 -11 -9 -14 -20z"/>
<path d="M6720 5880 c0 -5 5 -10 11 -10 5 0 7 5 4 10 -3 6 -8 10 -11 10 -2 0
-4 -4 -4 -10z"/>
<path d="M7040 5865 c0 -8 5 -15 10 -15 6 0 10 7 10 15 0 8 -4 15 -10 15 -5 0
-10 -7 -10 -15z"/>
<path d="M6846 5861 c-4 -5 -3 -16 0 -25 3 -9 1 -16 -5 -16 -16 0 -13 -37 3
-43 11 -4 16 3 18 26 3 30 5 32 53 37 l50 6 -40 12 c-48 14 -72 15 -79 3z"/>
<path d="M6782 5836 c7 -7 19 -11 26 -8 11 4 11 6 0 13 -7 5 -19 9 -26 9 -10
0 -10 -3 0 -14z"/>
<path d="M6801 5794 c0 -11 3 -14 6 -6 3 7 2 16 -1 19 -3 4 -6 -2 -5 -13z"/>
<path d="M5026 13043 c-6 -14 -5 -15 5 -6 7 7 10 15 7 18 -3 3 -9 -2 -12 -12z"/>
<path d="M5430 12989 c0 -5 5 -7 10 -4 6 3 10 8 10 11 0 2 -4 4 -10 4 -5 0
-10 -5 -10 -11z"/>
<path d="M5368 12963 c7 -3 16 -2 19 1 4 3 -2 6 -13 5 -11 0 -14 -3 -6 -6z"/>
<path d="M5370 12920 c-9 -16 -8 -18 5 -14 8 4 15 12 15 20 0 20 -7 17 -20 -6z"/>
<path d="M5227 12764 c6 -15 23 -19 23 -5 0 5 -7 11 -14 14 -10 4 -13 1 -9 -9z"/>
<path d="M5233 12715 c0 -8 4 -12 9 -9 5 3 6 10 3 15 -9 13 -12 11 -12 -6z"/>
<path d="M4960 12650 c0 -5 5 -10 11 -10 5 0 7 5 4 10 -3 6 -8 10 -11 10 -2 0
-4 -4 -4 -10z"/>
<path d="M5165 12630 c3 -5 8 -10 11 -10 2 0 4 5 4 10 0 6 -5 10 -11 10 -5 0
-7 -4 -4 -10z"/>
<path d="M4842 12614 c-30 -21 -46 -51 -27 -51 8 0 12 4 10 8 -3 4 7 16 22 27
33 24 27 39 -5 16z"/>
<path d="M5160 12590 c0 -5 -8 -7 -17 -3 -15 5 -16 3 -5 -8 10 -11 15 -10 29
4 11 11 13 17 5 17 -7 0 -12 -4 -12 -10z"/>
<path d="M4840 12576 c0 -2 7 -7 16 -10 8 -3 12 -2 9 4 -6 10 -25 14 -25 6z"/>
<path d="M4783 12545 c0 -8 4 -12 9 -9 5 3 6 10 3 15 -9 13 -12 11 -12 -6z"/>
<path d="M5127 12532 c-10 -10 -17 -27 -16 -38 0 -14 2 -15 6 -4 3 8 12 23 21
33 21 23 10 32 -11 9z"/>
<path d="M4779 12503 c-13 -16 -12 -17 4 -4 16 13 21 21 13 21 -2 0 -10 -8
-17 -17z"/>
<path d="M4865 12490 c-3 -5 -1 -10 4 -10 6 0 11 5 11 10 0 6 -2 10 -4 10 -3
0 -8 -4 -11 -10z"/>
<path d="M5070 12463 c0 -4 5 -15 10 -23 8 -13 10 -13 10 2 0 9 -4 20 -10 23
-5 3 -10 3 -10 -2z"/>
<path d="M5067 12413 c-4 -3 -7 -11 -7 -17 0 -6 5 -5 12 2 6 6 9 14 7 17 -3 3
-9 2 -12 -2z"/>
<path d="M5037 12386 c-4 -10 -5 -21 -2 -24 9 -9 17 6 13 25 -3 17 -4 17 -11
-1z"/>
<path d="M4695 12360 c-3 -5 1 -10 10 -10 9 0 13 5 10 10 -3 6 -8 10 -10 10
-2 0 -7 -4 -10 -10z"/>
<path d="M4607 12334 c3 -7 0 -14 -7 -14 -16 0 -44 -29 -36 -38 4 -3 10 -2 14
3 4 6 16 15 26 21 26 14 31 30 12 37 -10 4 -13 1 -9 -9z"/>
<path d="M4965 12320 c-3 -6 1 -7 9 -4 18 7 21 14 7 14 -6 0 -13 -4 -16 -10z"/>
<path d="M4620 12275 c-9 -11 -7 -16 9 -24 29 -16 40 -13 34 8 -6 25 -28 33
-43 16z"/>
<path d="M4966 12223 c-6 -14 -5 -15 5 -6 7 7 10 15 7 18 -3 3 -9 -2 -12 -12z"/>
<path d="M4884 12121 c-1 -20 1 -26 3 -13 3 15 10 22 18 18 9 -3 12 0 9 9 -12
30 -29 22 -30 -14z"/>
<path d="M4685 12090 c-3 -5 3 -10 14 -10 12 0 21 5 21 10 0 6 -6 10 -14 10
-8 0 -18 -4 -21 -10z"/>
<path d="M4890 12075 c-8 -9 -8 -15 -2 -15 12 0 26 19 19 26 -2 2 -10 -2 -17
-11z"/>
<path d="M4616 12031 c-3 -5 1 -11 9 -15 9 -3 15 0 15 9 0 16 -16 20 -24 6z"/>
<path d="M4641 11952 c-1 -50 0 -52 19 -40 13 9 20 24 20 45 0 36 -19 56 -21
21 -1 -23 -1 -23 -9 2 -6 20 -8 14 -9 -28z"/>
<path d="M4698 11960 c3 -25 0 -40 -7 -40 -6 0 -11 -17 -11 -37 0 -28 3 -34
10 -23 5 8 10 25 10 38 0 18 6 22 30 22 32 0 36 11 24 58 -5 16 -14 22 -33 22
-25 0 -26 -2 -23 -40z"/>
<path d="M4800 11960 c0 -5 7 -10 16 -10 8 0 12 5 9 10 -3 6 -10 10 -16 10 -5
0 -9 -4 -9 -10z"/>
<path d="M4816 11907 c3 -10 9 -15 12 -12 3 3 0 11 -7 18 -10 9 -11 8 -5 -6z"/>
<path d="M4720 12620 c-12 -8 -10 -9 7 -7 12 2 26 6 29 10 11 11 -19 8 -36 -3z"/>
<path d="M4290 11829 c0 -5 5 -7 10 -4 6 3 10 8 10 11 0 2 -4 4 -10 4 -5 0
-10 -5 -10 -11z"/>
<path d="M6630 9835 c-7 -8 -9 -15 -6 -15 4 0 14 7 22 15 9 8 11 15 6 15 -5 0
-15 -7 -22 -15z"/>
<path d="M6567 9764 c-20 -20 -34 -40 -31 -45 3 -6 13 0 22 13 9 13 26 30 37
40 11 9 18 19 15 22 -3 3 -22 -11 -43 -30z"/>
<path d="M8485 9610 c-3 -5 -1 -10 4 -10 6 0 11 5 11 10 0 6 -2 10 -4 10 -3 0
-8 -4 -11 -10z"/>
<path d="M8456 9389 c-17 -28 -17 -33 -4 -43 8 -6 15 -15 16 -19 1 -20 8 -14
8 8 0 13 -2 23 -5 23 -20 -2 -22 4 -7 21 10 11 16 25 14 31 -2 6 -12 -4 -22
-21z"/>
<path d="M7216 9305 c4 -8 10 -15 15 -15 5 0 9 7 9 15 0 8 -7 15 -15 15 -9 0
-12 -6 -9 -15z"/>
<path d="M7802 9280 c0 -14 2 -19 5 -12 2 6 2 18 0 25 -3 6 -5 1 -5 -13z"/>
<path d="M6452 8674 c-1 -18 5 -37 13 -44 10 -9 15 -9 15 -1 0 6 -4 11 -9 11
-6 0 -12 15 -14 33 l-4 32 -1 -31z"/>
<path d="M9210 5676 c0 -15 24 -28 34 -19 7 7 -13 33 -25 33 -5 0 -9 -6 -9
-14z"/>
<path d="M9177 5270 c-3 -11 -1 -20 4 -20 5 0 9 2 9 4 0 2 3 11 6 20 3 9 2 16
-4 16 -5 0 -12 -9 -15 -20z"/>
<path d="M9241 5214 c0 -11 3 -14 6 -6 3 7 2 16 -1 19 -3 4 -6 -2 -5 -13z"/>
<path d="M9190 5033 c-7 -21 -16 -42 -20 -48 -5 -5 -29 -59 -55 -120 -26 -60
-61 -137 -79 -170 -18 -33 -55 -100 -81 -150 -27 -49 -70 -128 -97 -175 -26
-46 -48 -89 -48 -94 0 -36 266 453 322 594 14 36 38 94 53 128 15 35 24 66 22
69 -3 2 -11 -13 -17 -34z"/>
<path d="M6640 4064 c0 -6 7 -19 16 -30 14 -18 14 -18 3 6 -14 31 -19 36 -19
24z"/>
<path d="M6675 5640 c-8 -13 15 -13 35 0 12 8 11 10 -7 10 -12 0 -25 -4 -28
-10z"/>
<path d="M9040 5575 c-7 -9 -11 -17 -9 -20 3 -2 10 5 17 15 14 24 10 26 -8 5z"/>
<path d="M9007 5518 c-46 -74 -120 -205 -162 -283 -26 -49 -57 -105 -67 -122
-11 -18 -16 -33 -11 -33 4 0 13 9 18 19 15 29 133 238 170 301 42 71 77 140
70 140 -2 0 -11 -10 -18 -22z"/>
<path d="M8341 5493 c-19 -12 -28 -23 -21 -23 10 0 10 -3 0 -15 -7 -8 -9 -15
-4 -15 10 0 68 70 62 74 -1 2 -18 -8 -37 -21z"/>
<path d="M6830 5379 c0 -5 5 -7 10 -4 6 3 10 8 10 11 0 2 -4 4 -10 4 -5 0 -10
-5 -10 -11z"/>
<path d="M6820 5290 c0 -5 7 -10 15 -10 8 0 15 5 15 10 0 6 -7 10 -15 10 -8 0
-15 -4 -15 -10z"/>
<path d="M7145 5360 c3 -5 8 -10 11 -10 2 0 4 5 4 10 0 6 -5 10 -11 10 -5 0
-7 -4 -4 -10z"/>
<path d="M7962 3540 c0 -14 2 -19 5 -12 2 6 2 18 0 25 -3 6 -5 1 -5 -13z"/>
<path d="M7560 3230 c34 -11 80 -12 80 -2 0 4 -24 8 -52 8 -39 1 -46 -1 -28
-6z"/>
<path d="M7755 3230 c3 -5 8 -10 11 -10 2 0 4 5 4 10 0 6 -5 10 -11 10 -5 0
-7 -4 -4 -10z"/>
<path d="M7893 3215 c0 -8 4 -15 9 -15 4 0 8 7 8 15 0 8 -4 15 -8 15 -5 0 -9
-7 -9 -15z"/>
<path d="M7927 3216 c-5 -12 0 -16 18 -16 14 0 25 5 25 11 0 5 -5 7 -11 3 -6
-3 -15 -1 -19 6 -5 8 -9 7 -13 -4z"/>
<path d="M8580 2770 c0 -11 2 -20 4 -20 2 0 6 9 9 20 3 11 1 20 -4 20 -5 0 -9
-9 -9 -20z"/>
<path d="M8551 2504 c0 -11 3 -14 6 -6 3 7 2 16 -1 19 -3 4 -6 -2 -5 -13z"/>
<path d="M8552 2420 c0 -14 2 -19 5 -12 2 6 2 18 0 25 -3 6 -5 1 -5 -13z"/>
<path d="M8542 2300 c0 -14 2 -19 5 -12 2 6 2 18 0 25 -3 6 -5 1 -5 -13z"/>
<path d="M8533 2115 c-3 -9 -3 -18 -1 -21 3 -3 8 4 11 16 6 23 -1 27 -10 5z"/>
<path d="M8520 2064 c0 -8 5 -12 10 -9 6 4 8 11 5 16 -9 14 -15 11 -15 -7z"/>
<path d="M8578 2013 c6 -2 18 -2 25 0 6 3 1 5 -13 5 -14 0 -19 -2 -12 -5z"/>
<path d="M8511 1974 c0 -11 3 -14 6 -6 3 7 2 16 -1 19 -3 4 -6 -2 -5 -13z"/>
<path d="M8492 1924 c-6 -16 -14 -42 -17 -59 -4 -19 2 -11 15 20 11 28 19 54
17 59 -2 5 -8 -4 -15 -20z"/>
<path d="M7721 2964 c0 -11 3 -14 6 -6 3 7 2 16 -1 19 -3 4 -6 -2 -5 -13z"/>
<path d="M7283 2813 c15 -2 37 -2 50 0 12 2 0 4 -28 4 -27 0 -38 -2 -22 -4z"/>
<path d="M7280 2790 c0 -5 5 -10 10 -10 6 0 10 5 10 10 0 6 -4 10 -10 10 -5 0
-10 -4 -10 -10z"/>
<path d="M7120 2719 c0 -18 2 -19 15 -5 8 8 15 17 15 20 0 3 -7 6 -15 6 -9 0
-15 -9 -15 -21z"/>
<path d="M7276 2377 c3 -10 9 -15 12 -12 3 3 0 11 -7 18 -10 9 -11 8 -5 -6z"/>
<path d="M7353 2303 c9 -2 23 -2 30 0 6 3 -1 5 -18 5 -16 0 -22 -2 -12 -5z"/>
<path d="M7690 2355 c0 -41 4 -75 8 -75 5 0 9 34 10 75 1 43 -3 75 -8 75 -6 0
-10 -33 -10 -75z"/>
<path d="M7818 2043 c6 -2 18 -2 25 0 6 3 1 5 -13 5 -14 0 -19 -2 -12 -5z"/>
<path d="M7298 2072 c-42 -5 -33 -17 12 -17 22 0 40 3 40 6 0 10 -22 15 -52
11z"/>
<path d="M7920 1970 c0 -13 11 -13 30 0 12 8 11 10 -7 10 -13 0 -23 -4 -23
-10z"/>
<path d="M8035 1970 c-3 -5 -1 -10 4 -10 6 0 11 5 11 10 0 6 -2 10 -4 10 -3 0
-8 -4 -11 -10z"/>
<path d="M8070 1962 c0 -28 10 -52 22 -52 5 0 6 4 3 10 -3 6 1 7 10 4 13 -6
16 -1 13 22 -2 21 -9 30 -25 32 -17 3 -23 -2 -23 -16z"/>
<path d="M8025 1891 c-6 -11 0 -15 43 -24 15 -3 22 0 22 9 0 8 -6 14 -14 14
-8 0 -21 3 -29 6 -8 3 -18 1 -22 -5z"/>
<path d="M8158 14003 c6 -2 18 -2 25 0 6 3 1 5 -13 5 -14 0 -19 -2 -12 -5z"/>
<path d="M8218 13993 c6 -2 18 -2 25 0 6 3 1 5 -13 5 -14 0 -19 -2 -12 -5z"/>
<path d="M8048 13983 c7 -3 16 -2 19 1 4 3 -2 6 -13 5 -11 0 -14 -3 -6 -6z"/>
<path d="M8273 13983 c9 -2 23 -2 30 0 6 3 -1 5 -18 5 -16 0 -22 -2 -12 -5z"/>
<path d="M8328 13973 c6 -2 18 -2 25 0 6 3 1 5 -13 5 -14 0 -19 -2 -12 -5z"/>
<path d="M10105 12839 c4 -6 22 -8 44 -5 31 5 206 -20 266 -38 11 -4 5 1 -14
10 -71 33 -312 60 -296 33z"/>
<path d="M10564 12749 c30 -19 178 -70 190 -66 6 3 -16 12 -49 22 -33 10 -71
23 -85 30 -14 7 -36 16 -50 19 -22 6 -23 6 -6 -5z"/>
<path d="M10300 11531 c0 -5 5 -13 10 -16 6 -3 10 -2 10 4 0 5 -4 13 -10 16
-5 3 -10 2 -10 -4z"/>
<path d="M9263 7733 c9 -2 25 -2 35 0 9 3 1 5 -18 5 -19 0 -27 -2 -17 -5z"/>
<path d="M5820 1301 c0 -29 115 -91 205 -111 33 -8 62 -17 65 -21 3 -3 30 -3
60 1 60 9 130 3 130 -12 0 -15 -43 -25 -135 -31 -49 -3 -81 -3 -70 -1 45 11
50 17 20 24 -73 18 -394 -1 -570 -33 -80 -15 -98 -15 -233 3 -40 6 -128 10
-195 10 -67 0 -129 5 -137 10 -11 7 -3 10 30 11 30 1 36 3 17 6 -15 2 -25 9
-22 14 4 5 -3 9 -15 9 -12 0 -18 5 -15 10 3 6 18 7 33 4 21 -5 25 -4 15 6 -13
14 -107 5 -98 -9 2 -5 -29 -12 -71 -16 -41 -4 -74 -8 -72 -10 2 -2 30 -7 63
-10 92 -9 80 -18 -15 -12 -47 4 -107 14 -135 22 -49 16 -195 26 -195 14 0 -3
12 -12 28 -19 l27 -13 -45 -9 c-25 -4 -52 -6 -60 -4 -8 2 -3 4 12 5 29 1 45
16 27 26 -5 4 -8 13 -5 21 3 7 1 16 -5 20 -11 7 -75 -21 -102 -45 -18 -15 -18
-16 5 -23 12 -4 -31 -5 -97 -3 -82 4 -140 1 -185 -9 -68 -14 -90 -12 -90 9 0
10 -9 11 -37 4 -21 -5 -130 -14 -243 -20 -198 -11 -275 -23 -275 -44 0 -7 580
-9 1725 -8 949 1 2038 1 2420 0 1227 -3 1444 -1 1465 11 15 9 -4 10 -85 4 -58
-4 -127 -7 -155 -7 -495 2 -735 7 -735 14 0 5 33 9 73 10 39 0 146 3 237 7
124 6 155 10 125 16 -22 4 -92 5 -155 2 -63 -3 -214 -7 -335 -9 -121 -2 -222
-4 -225 -4 -7 -2 -542 0 -691 2 -90 1 -125 5 -122 13 3 8 -12 14 -39 17 -24 3
-54 8 -68 10 -14 3 -56 10 -93 16 -38 5 -74 14 -80 19 -13 11 -137 35 -262 52
-60 8 -121 7 -245 -3 l-165 -13 -62 28 c-81 36 -143 58 -143 49z m635 -101
c35 -1 37 -2 17 -11 -26 -10 -99 -2 -108 13 -3 5 7 7 23 4 15 -2 46 -5 68 -6z
m160 -31 c33 -7 80 -14 105 -16 78 -8 63 -19 -30 -21 -71 -2 -88 1 -84 11 3 8
-2 14 -11 14 -8 0 -15 -4 -15 -9 0 -4 -5 -8 -11 -8 -5 0 -7 4 -4 10 3 5 -9 16
-27 24 -36 17 -34 16 77 -5z m-85 -19 c0 -5 -2 -10 -4 -10 -3 0 -8 5 -11 10
-3 6 -1 10 4 10 6 0 11 -4 11 -10z m385 -29 c43 -7 45 -9 15 -10 -55 -1 -140
11 -140 21 0 8 13 7 125 -11z m1132 -27 c-3 -3 -12 -4 -19 -1 -8 3 -5 6 6 6
11 1 17 -2 13 -5z"/>
<path d="M4748 1198 c27 -6 62 -6 95 0 49 9 47 10 -43 10 -84 0 -90 -1 -52
-10z"/>
<path d="M7778 1143 c6 -2 18 -2 25 0 6 3 1 5 -13 5 -14 0 -19 -2 -12 -5z"/>
<path d="M8624 1119 c12 -8 25 -8 40 -1 18 9 16 11 -19 11 -33 0 -37 -1 -21
-10z"/>
<path d="M9188 1073 c6 -2 18 -2 25 0 6 3 1 5 -13 5 -14 0 -19 -2 -12 -5z"/>
</g>
</svg>
